<svg width="84" height="84" viewBox="0 0 84 84" fill="none" xmlns="http://www.w3.org/2000/svg">
<rect width="84" height="84" rx="42" fill="#F3EA9F"/>
<path d="M56.1315 38.6367H21.0146C20.4545 38.6367 20 39.0912 20 39.6513V47.4352C20 51.0365 22.9301 53.9693 26.5314 53.9693H50.6123C54.2161 53.9693 57.1463 51.0392 57.1463 47.4352V39.6513C57.1463 39.0912 56.6916 38.6367 56.1315 38.6367Z" fill="url(#paint0_linear_336_1532)"/>
<path d="M73.329 38.6396H61.4658C61.6138 38.9435 61.6957 39.2896 61.6957 39.6542V44.6743C61.6957 45.039 61.6138 45.3851 61.4658 45.6889H70.4544C72.6051 45.6889 74.3436 43.9451 74.3436 41.7997V39.6542C74.3436 39.0915 73.8918 38.6396 73.329 38.6396Z" fill="url(#paint1_linear_336_1532)"/>
<path d="M59.3281 38.6367C58.7679 38.6367 58.3135 39.0912 58.3135 39.6513V44.6688C58.3135 45.2289 58.7679 45.6834 59.3281 45.6834C59.8882 45.6834 60.3427 45.2289 60.3427 44.6688V39.6513C60.3427 39.0912 59.8882 38.6367 59.3281 38.6367Z" fill="url(#paint2_linear_336_1532)"/>
<path d="M30.8147 28.9006C31.6021 29.5347 32.4899 30.2507 32.5295 31.1041C32.5639 31.8333 32.0011 32.7819 30.8993 33.8493C30.4977 34.2404 30.4871 34.8824 30.8781 35.284C31.0763 35.4901 31.3405 35.5905 31.6074 35.5905C31.861 35.5905 32.1173 35.4954 32.3155 35.3051C33.8875 33.778 34.6221 32.375 34.5587 31.0116C34.4768 29.2466 33.0975 28.1343 32.0909 27.3205C31.7739 27.0669 31.4779 26.8265 31.3115 26.6389C30.8571 26.121 30.6642 25.6164 30.725 25.0932C30.8412 24.0733 31.8822 23.1195 32.2759 22.8395C32.7304 22.5145 32.8387 21.883 32.5164 21.4286C32.194 20.9715 31.5599 20.8631 31.1028 21.1855C30.8835 21.3387 28.9574 22.7576 28.7117 24.8502C28.5822 25.9493 28.9547 27.0326 29.7897 27.9785C30.0671 28.2955 30.4316 28.5888 30.8147 28.9006Z" fill="url(#paint3_linear_336_1532)"/>
<path d="M37.7659 28.9006C38.5533 29.5347 39.4411 30.2507 39.4807 31.1041C39.515 31.8333 38.9523 32.7819 37.8505 33.8493C37.4488 34.2404 37.4383 34.8824 37.8293 35.284C38.0275 35.4901 38.2917 35.5905 38.5585 35.5905C38.8122 35.5905 39.0685 35.4954 39.2667 35.3051C40.8387 33.778 41.5733 32.375 41.5098 31.0116C41.4279 29.2466 40.0487 28.1343 39.0421 27.3205C38.725 27.0669 38.4291 26.8265 38.2627 26.6389C37.8082 26.121 37.6154 25.6164 37.6761 25.0932C37.7924 24.0733 38.8334 23.1195 39.2271 22.8395C39.6815 22.5145 39.7899 21.883 39.4675 21.4286C39.1452 20.9715 38.511 20.8631 38.054 21.1855C37.8347 21.3387 35.9086 22.7576 35.6628 24.8502C35.5334 25.9493 35.9059 27.0326 36.7409 27.9785C37.0183 28.2955 37.3802 28.5888 37.7659 28.9006Z" fill="url(#paint4_linear_336_1532)"/>
<path d="M44.7173 28.9009C45.5047 29.535 46.3925 30.251 46.4347 31.1044C46.4691 31.831 45.9037 32.7796 44.8045 33.8496C44.4029 34.2406 44.3923 34.8827 44.7834 35.2843C44.9815 35.4904 45.2457 35.5934 45.5126 35.5934C45.7662 35.5934 46.0225 35.4983 46.2207 35.3081C47.7928 33.7809 48.5273 32.3779 48.4639 31.0145C48.382 29.2496 47.0027 28.1372 45.9935 27.3235C45.6764 27.0698 45.3805 26.8294 45.2141 26.6418C44.7596 26.1239 44.5667 25.6193 44.6275 25.0961C44.7438 24.0763 45.7848 23.1224 46.1785 22.8424C46.6329 22.5174 46.7413 21.8859 46.4189 21.4315C46.0966 20.9744 45.4624 20.8661 45.0054 21.1884C44.7861 21.3417 42.86 22.7605 42.6169 24.8531C42.4875 25.9522 42.86 27.0329 43.695 27.9814C43.9697 28.2985 44.3316 28.5891 44.7173 28.9009Z" fill="url(#paint5_linear_336_1532)"/>
<path d="M56.1292 58.6852H50.4143L49.9413 56.3707C49.8462 55.8978 49.4261 55.5596 48.9478 55.5596L28.2016 55.5622C27.7207 55.5622 27.3032 55.9004 27.2081 56.3733L26.7351 58.6879L21.0175 58.6852C20.4574 58.6852 20.0029 59.1397 20.0029 59.6998C20.0029 60.26 20.4574 60.7144 21.0175 60.7144H56.129C56.6891 60.7144 57.1436 60.26 57.1436 59.6998C57.1436 59.1397 56.692 58.6852 56.1292 58.6852Z" fill="url(#paint6_linear_336_1532)"/>
<path d="M73.329 38.6396H61.4658C61.6138 38.9435 61.6957 39.2896 61.6957 39.6542V44.6743C61.6957 45.039 61.6138 45.3851 61.4658 45.6889H70.4544C72.6051 45.6889 74.3436 43.9451 74.3436 41.7997V39.6542C74.3436 39.0915 73.8918 38.6396 73.329 38.6396Z" fill="url(#paint7_linear_336_1532)"/>
<path d="M59.3281 38.6367C58.7679 38.6367 58.3135 39.0912 58.3135 39.6513V44.6688C58.3135 45.2289 58.7679 45.6834 59.3281 45.6834C59.8882 45.6834 60.3427 45.2289 60.3427 44.6688V39.6513C60.3427 39.0912 59.8882 38.6367 59.3281 38.6367Z" fill="url(#paint8_linear_336_1532)"/>
<path d="M30.8147 28.9006C31.6021 29.5347 32.4899 30.2507 32.5295 31.1041C32.5639 31.8333 32.0011 32.7819 30.8993 33.8493C30.4977 34.2404 30.4871 34.8824 30.8781 35.284C31.0763 35.4901 31.3405 35.5905 31.6074 35.5905C31.861 35.5905 32.1173 35.4954 32.3155 35.3051C33.8875 33.778 34.6221 32.375 34.5587 31.0116C34.4768 29.2466 33.0975 28.1343 32.0909 27.3205C31.7739 27.0669 31.4779 26.8265 31.3115 26.6389C30.8571 26.121 30.6642 25.6164 30.725 25.0932C30.8412 24.0733 31.8822 23.1195 32.2759 22.8395C32.7304 22.5145 32.8387 21.883 32.5164 21.4286C32.194 20.9715 31.5599 20.8631 31.1028 21.1855C30.8835 21.3387 28.9574 22.7576 28.7117 24.8502C28.5822 25.9493 28.9547 27.0326 29.7897 27.9785C30.0671 28.2955 30.4316 28.5888 30.8147 28.9006Z" fill="url(#paint9_linear_336_1532)"/>
<path d="M37.7659 28.9006C38.5533 29.5347 39.4411 30.2507 39.4807 31.1041C39.515 31.8333 38.9523 32.7819 37.8505 33.8493C37.4488 34.2404 37.4383 34.8824 37.8293 35.284C38.0275 35.4901 38.2917 35.5905 38.5585 35.5905C38.8122 35.5905 39.0685 35.4954 39.2667 35.3051C40.8387 33.778 41.5733 32.375 41.5098 31.0116C41.4279 29.2466 40.0487 28.1343 39.0421 27.3205C38.725 27.0669 38.4291 26.8265 38.2627 26.6389C37.8082 26.121 37.6154 25.6164 37.6761 25.0932C37.7924 24.0733 38.8334 23.1195 39.2271 22.8395C39.6815 22.5145 39.7899 21.883 39.4675 21.4286C39.1452 20.9715 38.511 20.8631 38.054 21.1855C37.8347 21.3387 35.9086 22.7576 35.6628 24.8502C35.5334 25.9493 35.9059 27.0326 36.7409 27.9785C37.0183 28.2955 37.3802 28.5888 37.7659 28.9006Z" fill="url(#paint10_linear_336_1532)"/>
<path d="M44.7173 28.9009C45.5047 29.535 46.3925 30.251 46.4347 31.1044C46.4691 31.831 45.9037 32.7796 44.8045 33.8496C44.4029 34.2406 44.3923 34.8827 44.7834 35.2843C44.9815 35.4904 45.2457 35.5934 45.5126 35.5934C45.7662 35.5934 46.0225 35.4983 46.2207 35.3081C47.7928 33.7809 48.5273 32.3779 48.4639 31.0145C48.382 29.2496 47.0027 28.1372 45.9935 27.3235C45.6764 27.0698 45.3805 26.8294 45.2141 26.6418C44.7596 26.1239 44.5667 25.6193 44.6275 25.0961C44.7438 24.0763 45.7848 23.1224 46.1785 22.8424C46.6329 22.5174 46.7413 21.8859 46.4189 21.4315C46.0966 20.9744 45.4624 20.8661 45.0054 21.1884C44.7861 21.3417 42.86 22.7605 42.6169 24.8531C42.4875 25.9522 42.86 27.0329 43.695 27.9814C43.9697 28.2985 44.3316 28.5891 44.7173 28.9009Z" fill="url(#paint11_linear_336_1532)"/>
<path d="M56.1292 58.6852H50.4143L49.9413 56.3707C49.8462 55.8978 49.4261 55.5596 48.9478 55.5596L28.2016 55.5622C27.7207 55.5622 27.3032 55.9004 27.2081 56.3733L26.7351 58.6879L21.0175 58.6852C20.4574 58.6852 20.0029 59.1397 20.0029 59.6998C20.0029 60.26 20.4574 60.7144 21.0175 60.7144H56.129C56.6891 60.7144 57.1436 60.26 57.1436 59.6998C57.1436 59.1397 56.692 58.6852 56.1292 58.6852Z" fill="url(#paint12_linear_336_1532)"/>
<defs>
<linearGradient id="paint0_linear_336_1532" x1="38.5732" y1="38.6367" x2="38.5732" y2="53.9693" gradientUnits="userSpaceOnUse">
<stop stop-color="#F91E1E"/>
<stop offset="1" stop-color="#B44242"/>
</linearGradient>
<linearGradient id="paint1_linear_336_1532" x1="67.9047" y1="38.6396" x2="67.9047" y2="45.6889" gradientUnits="userSpaceOnUse">
<stop stop-color="#F91E1E"/>
<stop offset="1" stop-color="#B44242"/>
</linearGradient>
<linearGradient id="paint2_linear_336_1532" x1="59.3281" y1="38.6367" x2="59.3281" y2="45.6834" gradientUnits="userSpaceOnUse">
<stop stop-color="#F91E1E"/>
<stop offset="1" stop-color="#B44242"/>
</linearGradient>
<linearGradient id="paint3_linear_336_1532" x1="31.6245" y1="21" x2="31.6245" y2="35.5905" gradientUnits="userSpaceOnUse">
<stop stop-color="#F91E1E"/>
<stop offset="1" stop-color="#B44242"/>
</linearGradient>
<linearGradient id="paint4_linear_336_1532" x1="38.5757" y1="21" x2="38.5757" y2="35.5905" gradientUnits="userSpaceOnUse">
<stop stop-color="#F91E1E"/>
<stop offset="1" stop-color="#B44242"/>
</linearGradient>
<linearGradient id="paint5_linear_336_1532" x1="45.5297" y1="21.0029" x2="45.5297" y2="35.5934" gradientUnits="userSpaceOnUse">
<stop stop-color="#F91E1E"/>
<stop offset="1" stop-color="#B44242"/>
</linearGradient>
<linearGradient id="paint6_linear_336_1532" x1="38.5733" y1="55.5596" x2="38.5733" y2="60.7144" gradientUnits="userSpaceOnUse">
<stop stop-color="#F91E1E"/>
<stop offset="1" stop-color="#B44242"/>
</linearGradient>
<linearGradient id="paint7_linear_336_1532" x1="67.9047" y1="38.6396" x2="67.9047" y2="45.6889" gradientUnits="userSpaceOnUse">
<stop stop-color="#F91E1E"/>
<stop offset="1" stop-color="#B44242"/>
</linearGradient>
<linearGradient id="paint8_linear_336_1532" x1="59.3281" y1="38.6367" x2="59.3281" y2="45.6834" gradientUnits="userSpaceOnUse">
<stop stop-color="#F91E1E"/>
<stop offset="1" stop-color="#B44242"/>
</linearGradient>
<linearGradient id="paint9_linear_336_1532" x1="31.6245" y1="21" x2="31.6245" y2="35.5905" gradientUnits="userSpaceOnUse">
<stop stop-color="#F91E1E"/>
<stop offset="1" stop-color="#B44242"/>
</linearGradient>
<linearGradient id="paint10_linear_336_1532" x1="38.5757" y1="21" x2="38.5757" y2="35.5905" gradientUnits="userSpaceOnUse">
<stop stop-color="#F91E1E"/>
<stop offset="1" stop-color="#B44242"/>
</linearGradient>
<linearGradient id="paint11_linear_336_1532" x1="45.5297" y1="21.0029" x2="45.5297" y2="35.5934" gradientUnits="userSpaceOnUse">
<stop stop-color="#F91E1E"/>
<stop offset="1" stop-color="#B44242"/>
</linearGradient>
<linearGradient id="paint12_linear_336_1532" x1="38.5733" y1="55.5596" x2="38.5733" y2="60.7144" gradientUnits="userSpaceOnUse">
<stop stop-color="#F91E1E"/>
<stop offset="1" stop-color="#B44242"/>
</linearGradient>
</defs>
</svg>
