<svg width="80" height="40" viewBox="0 0 80 40" fill="none" xmlns="http://www.w3.org/2000/svg">
<path d="M79.9999 0C71.7599 0 64.6799 4.99 61.6199 12.11C54.3599 4.65 44.2399 0 33.0099 0C20.2699 0 8.94994 5.97 1.62994 15.25C-0.540059 18 -0.540059 21.99 1.62994 24.75C8.94994 34.03 20.2699 40 33.0099 40C44.2399 40 54.3699 35.35 61.6199 27.89C64.6799 35.01 71.7499 40 79.9999 40C79.9999 32.42 77.3399 25.47 72.9299 20C77.3399 14.53 79.9999 7.58 79.9999 0ZM11.9999 24C9.78994 24 7.99994 22.21 7.99994 20C7.99994 17.79 9.78994 16 11.9999 16C14.2099 16 15.9999 17.79 15.9999 20C15.9999 22.21 14.2099 24 11.9999 24Z" fill="url(#paint0_linear_332_1463)"/>
<defs>
<linearGradient id="paint0_linear_332_1463" x1="40.0012" y1="0" x2="40.0012" y2="40" gradientUnits="userSpaceOnUse">
<stop stop-color="#29B4EF"/>
<stop offset="1" stop-color="#85CEED"/>
</linearGradient>
</defs>
</svg>
