<svg xmlns="http://www.w3.org/2000/svg" version="1.1" viewBox="-5.0 -10.0 110.0 135.0">
 <path d="m92.961 62.422h-20.617c-0.73828 0-1.3398 0.60156-1.3398 1.3398v0.4375h-4.0273c0.066407-0.21484 0.12891-0.42969 0.19531-0.64062 0.125-0.40625 0.050781-0.84766-0.19922-1.1914-0.25391-0.34375-0.65234-0.54688-1.0781-0.54688l-59.348 0.003907c-0.42578 0-0.82812 0.20312-1.0781 0.54688-0.25391 0.34375-0.32812 0.78516-0.19922 1.1914 0.25781 0.82812 0.51562 1.7109 0.78516 2.6484 2.2422 7.6992 5.3086 18.242 14.914 18.242l30.5-0.003906c7.0469 0 10.574-5.6719 12.84-11.73h6.6953v0.4375c0 0.73828 0.60156 1.3398 1.3398 1.3398h20.617c3.3281 0 6.0391-2.7109 6.0391-6.0391s-2.7109-6.0352-6.0391-6.0352zm-29.148 3.0391c-2.1133 7.2656-4.7461 16.309-12.34 16.309h-30.504c-7.5938 0-10.227-9.043-12.34-16.309-0.09375-0.32422-0.1875-0.64453-0.27734-0.95313l55.738-0.003906c-0.089844 0.3125-0.18359 0.62891-0.27734 0.95703zm7.1914 4.5742h-5.7695c0.34375-1.0742 0.66016-2.1367 0.95703-3.1562h4.8125zm21.957 1.7812h-19.277v-6.7148h19.277c1.8516 0 3.3594 1.5078 3.3594 3.3594 0 1.8477-1.5078 3.3555-3.3594 3.3555zm-84.004-39.008 2.8672 2.0664c-0.37109 0.87891-0.58984 1.8359-0.60156 2.8008-0.03125 2.2539 1.0547 4.0117 2.9805 4.8203 6.5078 2.75 10.445 9.5547 9.582 16.551-0.074218 0.59375 0.25781 1.1641 0.80859 1.3984 0.16797 0.070313 0.34766 0.10547 0.52344 0.10547 0.39844 0 0.78516-0.17578 1.043-0.5 1.6172-2.0117 2.7812-4.3086 3.457-6.8242 1.1562-4.3125 0.71875-8.8945-1.2266-12.898-1.918-3.9453-5.1719-7.0977-9.1602-8.8672-1.3242-0.58594-2.7383-0.62109-4.0898-0.09375-0.67578 0.26172-1.3008 0.70312-1.8477 1.2617l-2.7695-1.9961c-0.60156-0.43359-1.4375-0.29687-1.8711 0.30469-0.42969 0.60156-0.29688 1.4375 0.30469 1.8711zm5.7344 2.3594c0.007813-0.015625 0.019532-0.027344 0.027344-0.042969 0.38672-0.59375 0.875-1.0547 1.3984-1.2617 0.32422-0.12891 0.64453-0.19141 0.96484-0.19141 0.35547 0 0.71094 0.078125 1.0664 0.23828 7.1836 3.1875 10.922 11.02 8.8867 18.621-0.17578 0.65625-0.39062 1.293-0.64062 1.9102-0.92969-6.2891-5.0859-11.855-11.141-14.414-0.90625-0.38281-1.3594-1.1602-1.3438-2.3164 0.007813-0.88281 0.3125-1.8086 0.78125-2.543zm14.336 0.38281c0.70312 0.1875 1.418 0.28125 2.1289 0.28125 1.4062 0 2.7969-0.36719 4.0508-1.0898 1.8828-1.0859 3.2305-2.8438 3.793-4.9453 0.79688-2.9688-0.16406-5.9961-2.2383-7.9844 0.63672-0.35547 1.2422-0.82422 1.793-1.4062 0.51172-0.53516 0.48828-1.3867-0.050782-1.8945-0.53516-0.51172-1.3867-0.48828-1.8945 0.050781-0.60547 0.63672-1.2891 1.0625-1.9688 1.2461l0.6875-2.5664c0.19141-0.71484-0.23438-1.4492-0.94922-1.6406-0.71484-0.19141-1.4492 0.23047-1.6406 0.94531l-0.6875 2.5664c-0.49609-0.5-0.875-1.2109-1.082-2.0664-0.17188-0.71875-0.89453-1.1602-1.6172-0.98828-0.71875 0.17188-1.1641 0.89453-0.98828 1.6172 0.1875 0.77734 0.47656 1.4883 0.84766 2.1133-2.793 0.6875-5.1406 2.832-5.9336 5.7969-1.1641 4.332 1.418 8.8008 5.75 9.9648zm-3.1641-9.2734c0.65234-2.4375 2.8633-4.0469 5.2773-4.0469 0.46484 0 0.94141 0.058593 1.4102 0.1875 2.9062 0.78125 4.6367 3.7773 3.8555 6.6836-0.37891 1.4102-1.2812 2.5898-2.5469 3.3164-1.2617 0.72656-2.7344 0.92188-4.1406 0.53906-2.9023-0.77734-4.6328-3.7734-3.8555-6.6797zm31.145 27.996c0 2.1875 0.85156 4.2422 2.3984 5.7891 0.25 0.25 0.59375 0.39453 0.94922 0.39453s0.69531-0.14062 0.94922-0.39453l9.6758-9.6758c0.52344-0.52344 0.52344-1.3711 0-1.8945-1.5469-1.5469-3.6016-2.3984-5.7852-2.3984h-0.003906c-2.1836 0-4.2344 0.85156-5.7773 2.3984-1.5547 1.543-2.4062 3.5977-2.4062 5.7812zm4.293-3.8828 0.003907-0.003906c1.0352-1.0391 2.4141-1.6133 3.8828-1.6133h0.003906c1.0117 0 1.9844 0.27344 2.8281 0.78125l-7.5469 7.5469c-0.51172-0.84766-0.78125-1.8203-0.78125-2.832-0.003906-1.4648 0.57031-2.8438 1.6094-3.8789zm-51.367 9.4453c0.25 0.25 0.59375 0.39453 0.94922 0.39453 0.35547 0 0.69531-0.14062 0.94922-0.39453l4.6289-4.6289c0.52344-0.52344 0.52344-1.3711 0-1.8945l-2.8008-2.8008c0.84766-1.6055 0.60938-3.5742-0.72656-4.9062-0.78906-0.78906-1.8398-1.2227-2.957-1.2227-1.1172 0-2.168 0.43359-2.957 1.2227l-4.7891 4.7891c-0.79688 0.78516-1.2305 1.8359-1.2305 2.957 0 1.1172 0.43359 2.168 1.2188 2.957 0.78516 0.78906 1.8203 1.2266 2.9141 1.2266h0.003907c0.69922 0 1.3789-0.17188 1.9922-0.5zm-4.793-4.9805h-0.003906c-0.37891 0-0.73047-0.15234-1.0195-0.44141-0.28125-0.28125-0.4375-0.66016-0.4375-1.0625 0-0.40234 0.15625-0.78125 0.4375-1.0625l4.7891-4.7891c0.28125-0.28125 0.66016-0.4375 1.0625-0.4375s0.78125 0.15625 1.0625 0.4375c0.69922 0.69531 0.48828 1.6367-0.082031 2.207-0.52344 0.52344-0.52344 1.3711 0 1.8945l2.6602 2.6602-2.7344 2.7344-2.6602-2.6602c-0.26172-0.26172-0.60547-0.39453-0.94922-0.39453s-0.6875 0.13281-0.94922 0.39453c-0.32812 0.33203-0.75 0.51953-1.1758 0.51953zm10.844-27.078c2.332 0 4.2305-1.8984 4.2305-4.2305s-1.8984-4.2266-4.2305-4.2266c-2.3359 0-4.2305 1.8945-4.2305 4.2266s1.8984 4.2305 4.2305 4.2305zm0-5.7812c0.85547 0 1.5508 0.69531 1.5508 1.5469 0 0.85547-0.69531 1.5508-1.5508 1.5508s-1.5508-0.69531-1.5508-1.5508c0-0.85156 0.69531-1.5469 1.5508-1.5469zm23.648 9.6094c2.4297-4.1992 7.2188-6.457 12.211-5.7539 0.73438 0.10547 1.2422 0.78125 1.1406 1.5156-0.10547 0.73437-0.78125 1.2422-1.5156 1.1406-3.9023-0.55078-7.6367 1.1914-9.5156 4.4375-0.98828 1.7148-1.3711 3.6719-1.1133 5.6602 0.054687 0.40625-0.082032 0.81641-0.37109 1.1094-0.41016 0.41797-0.77344 0.89844-1.0781 1.4258-0.75 1.3086-1.0742 2.8086-0.92578 4.3281 0.042968 0.43359-0.12891 0.85547-0.45703 1.1406-0.51953 0.44922-0.94922 0.97656-1.2891 1.5625-0.85156 1.4766-1.0469 3.2148-0.55078 4.8984 0.50391 1.707 1.6562 3.1523 3.2422 4.0703 3.2578 1.8789 7.3477 0.91797 9.1172-2.1445 0.34375-0.59766 0.57812-1.2383 0.70703-1.9023 0.082031-0.42969 0.36719-0.78906 0.76172-0.96875 1.3945-0.63281 2.5312-1.6602 3.2891-2.9727 0.29297-0.51172 0.52734-1.0664 0.69141-1.6445 0.11328-0.39453 0.39844-0.71484 0.77344-0.87109 1.8555-0.77344 3.3594-2.0859 4.3477-3.7969 1.2422-2.1523 1.5273-4.6875 0.80469-7.1406-0.60547-2.0547-1.8594-3.8477-3.582-5.1562l-2.4414 4.2305 1.6797 3.4844c0.32031 0.66797 0.042968 1.4688-0.625 1.7891-0.1875 0.089844-0.38672 0.13281-0.58203 0.13281-0.5 0-0.97656-0.27734-1.207-0.75781l-0.88672-1.8438-1.8398 3.1836 1.6797 3.4922c0.32031 0.66797 0.039063 1.4688-0.62891 1.7891-0.1875 0.089843-0.38672 0.13281-0.57812 0.13281-0.5 0-0.97656-0.28125-1.2109-0.75781l-0.88672-1.8438-1.1914 2.0625 1.6836 3.4883c0.32031 0.66797 0.042969 1.4688-0.625 1.7891-0.1875 0.089844-0.38672 0.13281-0.58203 0.13281-0.5 0-0.97656-0.27734-1.207-0.75781l-0.89062-1.8438-1.4961 2.5898c-0.24609 0.42969-0.69922 0.67188-1.1602 0.67188-0.22656 0-0.45703-0.058593-0.66797-0.17969-0.64062-0.37109-0.85938-1.1914-0.49219-1.832l1.4961-2.5898-2.0469 0.15234c-0.73047 0.050782-1.3828-0.5-1.4375-1.2383-0.054687-0.73828 0.5-1.3828 1.2383-1.4375l3.8672-0.28906 1.1914-2.0625-2.043 0.16016c-0.73438 0.050781-1.3828-0.5-1.4375-1.2383-0.054688-0.73828 0.49609-1.3828 1.2383-1.4375l3.8672-0.28906 1.8398-3.1875-2.0469 0.15234c-0.73828 0.054687-1.3828-0.49609-1.4375-1.2344s0.49609-1.3828 1.2344-1.4375l3.8672-0.28906 3.1211-5.4062c0.011719-0.019532 0.019531-0.039063 0.027344-0.058594 0.011719-0.019532 0.023437-0.035156 0.035156-0.054688l3.3789-5.8477c0.37109-0.64062 1.1914-0.85938 1.832-0.49219 0.64062 0.37109 0.85938 1.1914 0.49219 1.832l-2.7695 4.8086c2.3164 1.668 4.0039 4.0195 4.8047 6.7344 0.93359 3.1641 0.55859 6.4492-1.0547 9.2422-1.1797 2.043-2.9219 3.6484-5.0586 4.6719-0.20312 0.57031-0.45312 1.1172-0.75 1.6367-0.92969 1.6055-2.2656 2.8984-3.8984 3.7734-0.19531 0.71875-0.48438 1.4141-0.86328 2.0703-1.6523 2.8633-4.707 4.4492-7.8945 4.4492-1.6523 0-3.3398-0.42578-4.8867-1.3203-2.1875-1.2617-3.7734-3.2617-4.4766-5.6328-0.70703-2.3945-0.42188-4.8789 0.80078-6.9961 0.37109-0.65234 0.82812-1.25 1.3555-1.7852-0.054688-1.8477 0.39453-3.6484 1.3164-5.2539 0.30859-0.53125 0.66016-1.0234 1.0469-1.4805-0.17969-2.3594 0.33984-4.668 1.5195-6.7148zm5.7461-6.8438c2.3359 0 4.2305-1.8945 4.2305-4.2266 0-2.3359-1.8984-4.2305-4.2305-4.2305-2.332 0-4.2305 1.8984-4.2305 4.2305-0.003907 2.3281 1.8945 4.2266 4.2305 4.2266zm0-5.7812c0.85547 0 1.5508 0.69531 1.5508 1.5508 0 0.85156-0.69531 1.5469-1.5508 1.5469-0.85547 0-1.5508-0.69531-1.5508-1.5469-0.003906-0.85547 0.69531-1.5508 1.5508-1.5508z"/>
<text x="0.0" y="117.5" font-size="5.0" font-weight="bold" font-family="Arbeit Regular, Helvetica, Arial-Unicode, Arial, Sans-serif" fill="#000000">Created by kliwir art</text><text x="0.0" y="122.5" font-size="5.0" font-weight="bold" font-family="Arbeit Regular, Helvetica, Arial-Unicode, Arial, Sans-serif" fill="#000000">from Noun Project</text></svg>