<svg width="80" height="98" viewBox="0 0 80 98" fill="none" xmlns="http://www.w3.org/2000/svg">
<path d="M30.055 19.5509C32.2112 19.2228 34.3128 20.2345 35.4027 22.1212C36.4925 24.0157 36.3206 26.34 34.9613 28.047C34.7152 28.3595 34.6136 28.7658 34.6956 29.1564C34.7738 29.5471 35.0238 29.883 35.3753 30.0705C37.7776 31.3674 39.8089 32.0119 41.5159 32.0119C42.43 32.0119 43.2542 31.8283 43.9886 31.4572C45.3597 30.7697 46.3245 29.4806 46.8597 27.6174C48.7386 28.0862 50.3363 27.8987 51.6175 27.051C53.5902 25.7541 54.6058 23.0822 54.723 18.8948C54.7347 18.4964 54.5668 18.1136 54.2699 17.8479C53.9691 17.5823 53.5707 17.4651 53.1761 17.5276C51.0199 17.8557 48.9183 16.844 47.8284 14.9573C46.7386 13.0628 46.9104 10.7385 48.2698 9.03149C48.5315 8.70337 48.6253 8.27368 48.5237 7.87129C48.4222 7.46504 48.1409 7.1291 47.7581 6.96113C44.512 5.53533 41.8128 5.29313 39.7386 6.23066C38.8323 6.64082 38.0628 7.26586 37.4339 8.09396C37.1097 6.74236 37.3479 5.48846 38.1487 4.21116C38.5433 3.58225 38.3518 2.75026 37.7229 2.35566C37.094 1.96106 36.262 2.15254 35.8674 2.78144C34.5002 4.96504 34.2463 7.26974 35.1057 9.65644C33.8909 9.73066 32.8166 10.0979 31.8948 10.758C30.0432 12.0822 28.9026 14.5432 28.512 18.0705C28.4651 18.4846 28.6175 18.8987 28.9183 19.1877C29.223 19.4807 29.6448 19.6134 30.055 19.5509ZM33.4652 12.9493C34.3558 12.3126 35.5394 12.172 37.0863 12.5118C37.1292 12.5197 37.1722 12.5275 37.2113 12.5353H37.2152C37.266 12.5431 37.3167 12.5431 37.3636 12.5431H37.3792C37.3871 12.5431 37.3949 12.5392 37.4027 12.5392C37.4496 12.5392 37.4964 12.5353 37.5394 12.5275C37.5511 12.5275 37.5628 12.5236 37.5746 12.5236C37.6292 12.5157 37.68 12.504 37.7347 12.4884C37.7464 12.4845 37.7581 12.4806 37.7738 12.4767C37.8246 12.4611 37.8714 12.4454 37.9183 12.4259C37.9261 12.422 37.93 12.422 37.9378 12.4181C37.9925 12.3947 38.0433 12.3634 38.0902 12.3322C38.0941 12.3283 38.1019 12.3282 38.1058 12.3243C38.1136 12.3204 38.1175 12.3165 38.1253 12.3126C38.1488 12.297 38.1722 12.2814 38.1956 12.2618C38.2074 12.254 38.2191 12.2423 38.2308 12.2345C38.2503 12.215 38.2738 12.1993 38.2933 12.1798C38.305 12.1681 38.3167 12.1603 38.3285 12.1486C38.348 12.129 38.3636 12.1095 38.3831 12.09C38.3949 12.0782 38.4066 12.0665 38.4144 12.0548C38.43 12.0353 38.4456 12.0118 38.4652 11.9884C38.473 11.9767 38.4847 11.965 38.4925 11.9493C38.5081 11.9259 38.5199 11.9025 38.5355 11.879C38.5433 11.8673 38.5511 11.8517 38.5589 11.84C38.5706 11.8165 38.5824 11.7931 38.5941 11.7697C38.6019 11.754 38.6097 11.7384 38.6136 11.7228C38.6214 11.7033 38.6292 11.6798 38.6371 11.6603C38.6449 11.6408 38.6527 11.6212 38.6566 11.6017C38.6566 11.5978 38.6566 11.5978 38.6605 11.5978C39.137 10.0861 39.8558 9.12898 40.8519 8.67588C41.9261 8.1876 43.391 8.2501 45.2152 8.85166C44.0785 11.1915 44.1527 13.9611 45.4964 16.2931C46.8675 18.6681 49.2933 20.1251 51.9456 20.2619C51.7191 22.6057 51.1019 24.1642 50.137 24.7971C49.3011 25.3478 48.0276 25.2853 46.3518 24.6213C45.969 24.4689 45.5393 24.5002 45.1838 24.7072C44.8284 24.9142 44.5862 25.2697 44.5237 25.676C44.262 27.4612 43.676 28.5979 42.7815 29.0432C41.7503 29.5627 40.094 29.3166 37.9495 28.34C39.1526 25.9728 39.1018 23.1447 37.7346 20.7697C36.3869 18.4377 34.0276 16.9924 31.4299 16.8088C31.8206 14.9338 32.5042 13.6368 33.4652 12.9493ZM78.0512 23.0473C77.5473 22.5356 76.9262 22.1567 76.2465 21.9262C76.0199 21.2466 75.6371 20.6293 75.1332 20.1293C74.266 19.2583 73.1137 18.7777 71.8832 18.7777H71.8793C70.6488 18.7777 69.4926 19.2582 68.6215 20.1293C67.1645 21.5863 66.891 23.7934 67.8012 25.5316L64.9496 28.3871C62.4535 27.7661 59.3676 27.7934 56.6762 28.4731C56.2504 28.5786 55.9027 28.8871 55.7465 29.2973C55.5902 29.7075 55.641 30.1684 55.8871 30.5317C57.2894 32.6059 57.016 35.4028 55.2386 37.1762C53.3441 39.0707 50.3363 39.2426 48.2425 37.5707C47.9066 37.3012 47.4613 37.2114 47.0433 37.3246C46.6293 37.4379 46.2933 37.7465 46.141 38.1528C45.2465 40.559 45.0199 42.9966 45.4574 45.1958L20.2304 45.1919C17.707 45.1919 15.6562 47.2466 15.6562 49.7739C15.6562 52.1684 17.5078 54.1411 19.8515 54.3325L27.3632 94.1955C27.7851 96.4377 29.6718 98.0002 31.9491 98.0002H56.0111C58.2572 98.0002 60.1869 96.3986 60.597 94.1955L68.1048 54.3325C70.4564 54.141 72.3079 52.1684 72.3079 49.7739C72.3079 47.4223 70.5267 45.477 68.2415 45.2231C70.3899 41.3559 70.6204 36.5512 69.7845 33.2231L72.6361 30.3715C74.3744 31.2855 76.5814 31.0121 78.0384 29.555C78.9095 28.684 79.39 27.5238 79.39 26.2933C79.3939 25.0628 78.9144 23.9067 78.0512 23.0473ZM48.1962 40.6763C51.1571 42.0435 54.7431 41.4771 57.1454 39.0747C59.3602 36.8599 60.0282 33.5981 59.0048 30.7622C60.7079 30.5357 62.4696 30.5904 63.9931 30.9263L67.2509 34.1841C67.9735 37.4536 67.4423 42.0786 65.0595 45.1961L48.2275 45.1922C47.8525 43.8133 47.8407 42.27 48.1962 40.6763ZM42.6376 54.5783V95.3083H37.4345L36.3564 83.2923C36.29 82.5541 35.6376 82.0071 34.8955 82.0735C34.1572 82.14 33.6103 82.7923 33.6767 83.5344L34.7314 95.3114H31.9502C30.9853 95.3114 30.1846 94.6474 30.0049 93.702L22.5947 54.35H31.0595L33.2548 78.78C33.3173 79.4793 33.9032 80.0066 34.5946 80.0066C34.6336 80.0066 34.6766 80.0027 34.7157 80.0027C35.4539 79.9363 36.0009 79.284 35.9345 78.5418L33.7626 54.3468H42.661C42.6453 54.4211 42.6375 54.4992 42.6375 54.5773L42.6376 54.5783ZM45.329 95.3083V54.5783C45.329 54.5002 45.3212 54.426 45.3094 54.3479H54.2039L50.5281 95.3089L45.329 95.3083ZM57.954 93.7029C57.7782 94.6482 56.9813 95.3083 56.0126 95.3083H53.2235L56.8993 54.3473H65.3641L57.954 93.7029ZM69.622 49.7728C69.622 50.8119 68.7743 51.6595 67.7314 51.6595L20.2314 51.6556C19.1923 51.6556 18.3447 50.8119 18.3447 49.7689C18.3447 48.726 19.1884 47.8783 20.2314 47.8783H47.2584H47.2623H47.2701H67.7311C68.7741 47.8822 69.622 48.7299 69.622 49.7728ZM76.1454 27.6478C75.4032 28.39 74.1923 28.3939 73.4462 27.6557C72.9188 27.1322 72.0712 27.1361 71.5478 27.6596L68.0439 31.1635L67.0087 30.1283L70.5087 26.6244C71.0321 26.1009 71.0321 25.2533 70.5165 24.7299C69.7782 23.9838 69.786 22.7729 70.5282 22.0307C70.8915 21.6674 71.372 21.4682 71.8837 21.4682H71.8876C72.3954 21.4682 72.8759 21.6674 73.2392 22.0346C73.6337 22.4252 73.7587 22.8822 73.79 23.1908C73.8564 23.8236 74.3564 24.3197 74.9853 24.3861C75.2978 24.4173 75.7509 24.5423 76.1494 24.9447C76.5088 25.304 76.708 25.7806 76.708 26.2924C76.708 26.8041 76.5087 27.2845 76.1454 27.6478ZM26.3404 44.0348C26.5122 44.0348 26.6841 44.0309 26.856 44.0231C27.2974 44.0036 27.7036 43.7692 27.938 43.3981C30.2857 39.6872 30.4653 35.1598 28.4067 31.5861C27.895 30.6994 27.2544 29.8947 26.5122 29.1877C26.27 28.9573 25.9458 28.8244 25.6099 28.8205C23.7388 28.7854 22.1451 29.0276 20.774 29.5588L19.9849 28.1877L22.2701 26.8713C22.9147 26.5002 23.1334 25.676 22.7623 25.0315C22.3912 24.387 21.567 24.1682 20.9225 24.5393L18.6373 25.8596L17.6842 24.2073L21.7428 21.8635C22.3873 21.4924 22.6061 20.6682 22.235 20.0237C21.8639 19.3792 21.0397 19.1604 20.3952 19.5315L16.3405 21.8753L15.3874 20.223L17.6765 18.9027C18.321 18.5316 18.5398 17.7074 18.1687 17.0629C17.7976 16.4184 16.9734 16.1997 16.3289 16.5707L14.0398 17.891L12.5046 15.2308L13.6804 5.80895C13.7546 5.21911 13.4304 4.64875 12.8835 4.41055C12.3366 4.17227 11.6999 4.3207 11.3171 4.77774L7.52409 9.28944L1.71939 10.3167C1.13345 10.4222 0.684185 10.8988 0.617785 11.4925C0.551378 12.0863 0.883405 12.6487 1.43029 12.8831L10.1764 16.5784L11.7116 19.2386L9.42639 20.5589C8.78186 20.93 8.56311 21.7542 8.9342 22.3987C9.1842 22.8284 9.63342 23.0706 10.0983 23.0706C10.3249 23.0706 10.5592 23.012 10.7702 22.8909L13.0514 21.5706L14.0045 23.2229L9.94979 25.5667C9.30526 25.9378 9.08652 26.762 9.45761 27.4065C9.70761 27.8401 10.1568 28.0784 10.6217 28.0784C10.8483 28.0784 11.0826 28.0198 11.2936 27.8987L15.3483 25.5549L16.3014 27.2072L14.0162 28.5236C13.3717 28.8947 13.1529 29.7189 13.524 30.3634C13.774 30.797 14.2232 31.0353 14.692 31.0353C14.9186 31.0353 15.153 30.9767 15.3639 30.8556L17.6491 29.5353L18.4421 30.9064C17.3093 31.8205 16.3015 33.0783 15.3874 34.7111C15.2233 35.008 15.1725 35.3556 15.2546 35.6838C15.5006 36.6994 15.8835 37.6565 16.3952 38.5236C18.3718 41.9533 22.149 44.0348 26.3404 44.0348ZM9.99637 13.5818L6.66437 12.1756L8.46907 11.8553C8.78157 11.8006 9.06282 11.6366 9.26595 11.3944L10.4456 9.99209L9.99637 13.5818ZM20.9024 32.4688C21.9688 31.8517 23.3243 31.5353 25.0196 31.5079C25.4219 31.9415 25.7774 32.422 26.0704 32.9337C27.5157 35.4454 27.4845 38.6095 26.0196 41.3399C22.918 41.2422 20.168 39.6876 18.7149 37.168C18.418 36.6641 18.1836 36.125 18.0039 35.5547C18.8946 34.0938 19.8438 33.082 20.9024 32.4688ZM21.7656 38.3672C21.3946 37.7227 21.6172 36.8984 22.2617 36.5313C22.9063 36.1642 23.7305 36.3829 24.0976 37.0274L24.3086 37.3985C24.6797 38.0431 24.457 38.8673 23.8125 39.2344C23.6015 39.3555 23.3711 39.4141 23.1445 39.4141C22.6797 39.4141 22.2265 39.1719 21.9765 38.7383L21.7656 38.3672ZM59.2306 24.1172C59.4885 24.461 59.8908 24.6563 60.3087 24.6563C60.4103 24.6563 60.5119 24.6446 60.6134 24.6211C63.629 23.918 66.0743 21.7383 67.1525 18.7891C68.2306 15.8321 67.7697 12.5899 65.9142 10.1094C65.5939 9.67976 65.051 9.48445 64.5314 9.60554C61.5158 10.3087 59.0705 12.4883 57.9923 15.4375C56.9103 18.3945 57.3752 21.6406 59.2306 24.1172ZM60.5197 16.3633C61.176 14.5664 62.5431 13.1758 64.2619 12.5039C65.1409 14.125 65.2854 16.0703 64.6291 17.8672C63.9729 19.6641 62.6057 21.0547 60.8869 21.7266C60.008 20.1055 59.8635 18.1602 60.5197 16.3633ZM33.6837 38.2383C33.6837 40.793 35.7579 42.8672 38.3087 42.8672C40.8634 42.8672 42.9376 40.7891 42.9376 38.2383C42.9376 35.6836 40.8595 33.6094 38.3087 33.6094C35.7579 33.6055 33.6837 35.6836 33.6837 38.2383ZM40.2462 38.2383C40.2462 39.3086 39.3752 40.1758 38.3087 40.1758C37.2423 40.1758 36.3751 39.3048 36.3751 38.2383C36.3751 37.168 37.2423 36.3008 38.3087 36.3008C39.379 36.2969 40.2462 37.168 40.2462 38.2383ZM21.8872 14.7463C24.4419 14.7463 26.5161 12.6682 26.5161 10.1174C26.5161 7.56664 24.438 5.49244 21.8872 5.49244C19.3325 5.49244 17.2583 7.56664 17.2583 10.1174C17.2544 12.6682 19.3325 14.7463 21.8872 14.7463ZM21.8872 8.17994C22.9575 8.17994 23.8247 9.04713 23.8247 10.1135C23.8247 11.1838 22.9537 12.051 21.8872 12.051C20.8169 12.051 19.9497 11.18 19.9497 10.1135C19.9458 9.05104 20.8169 8.17994 21.8872 8.17994ZM55.3252 9.25414C57.876 9.25414 59.9502 7.17994 59.9502 4.62914C59.9502 2.07444 57.876 0.000244141 55.3252 0.000244141C52.7705 0.000244141 50.6963 2.07834 50.6963 4.62914C50.6963 7.17994 52.7705 9.25414 55.3252 9.25414ZM55.3252 2.69164C56.3916 2.69164 57.2588 3.56273 57.2588 4.62914C57.2588 5.69555 56.3917 6.56274 55.3252 6.56274C54.2549 6.56274 53.3877 5.69555 53.3877 4.62914C53.3838 3.56274 54.2549 2.69164 55.3252 2.69164Z" fill="url(#paint0_linear_328_1433)"/>
<defs>
<linearGradient id="paint0_linear_328_1433" x1="39.9997" y1="0.000244141" x2="39.9997" y2="98.0002" gradientUnits="userSpaceOnUse">
<stop stop-color="#5F1DEA"/>
<stop offset="1" stop-color="#925DE7"/>
</linearGradient>
</defs>
</svg>
