<svg xmlns="http://www.w3.org/2000/svg" version="1.1" viewBox="-5.0 -10.0 110.0 135.0">
 <path d="m40.055 20.551c2.1562-0.32812 4.2578 0.68359 5.3477 2.5703 1.0898 1.8945 0.91797 4.2188-0.44141 5.9258-0.24609 0.3125-0.34766 0.71875-0.26563 1.1094 0.078126 0.39062 0.32813 0.72656 0.67969 0.91406 2.4023 1.2969 4.4336 1.9414 6.1406 1.9414 0.91406 0 1.7383-0.18359 2.4727-0.55469 1.3711-0.6875 2.3359-1.9766 2.8711-3.8398 1.8789 0.46875 3.4766 0.28125 4.7578-0.56641 1.9727-1.2969 2.9883-3.9688 3.1055-8.1562 0.011719-0.39844-0.15625-0.78125-0.45312-1.0469-0.30078-0.26562-0.69922-0.38281-1.0938-0.32031-2.1562 0.32812-4.2578-0.68359-5.3477-2.5703-1.0898-1.8945-0.91797-4.2188 0.44141-5.9258 0.26172-0.32812 0.35547-0.75781 0.25391-1.1602-0.10156-0.40625-0.38281-0.74219-0.76563-0.91016-3.2461-1.4258-5.9453-1.668-8.0195-0.73047-0.90625 0.41016-1.6758 1.0352-2.3047 1.8633-0.32422-1.3516-0.085938-2.6055 0.71484-3.8828 0.39453-0.62891 0.20312-1.4609-0.42578-1.8555s-1.4609-0.20312-1.8555 0.42578c-1.3672 2.1836-1.6211 4.4883-0.76172 6.875-1.2148 0.074219-2.2891 0.44141-3.2109 1.1016-1.8516 1.3242-2.9922 3.7852-3.3828 7.3125-0.046875 0.41406 0.10547 0.82813 0.40625 1.1172 0.30469 0.29297 0.72656 0.42578 1.1367 0.36328zm3.4102-6.6016c0.89062-0.63672 2.0742-0.77734 3.6211-0.4375 0.042968 0.007812 0.085937 0.015625 0.125 0.023437h0.003906c0.050781 0.007813 0.10156 0.007813 0.14844 0.007813h0.015625c0.007813 0 0.015625-0.003907 0.023438-0.003907 0.046875 0 0.09375-0.003906 0.13672-0.011718 0.011719 0 0.023438-0.003906 0.035157-0.003906 0.054687-0.007813 0.10547-0.019532 0.16016-0.035157 0.011719-0.003906 0.023437-0.007812 0.039063-0.011719 0.050781-0.015624 0.097656-0.03125 0.14453-0.050781 0.007812-0.003906 0.011719-0.003906 0.019531-0.007812 0.054688-0.023438 0.10547-0.054688 0.15234-0.085938 0.003906-0.003906 0.011718-0.003906 0.015625-0.007812 0.007812-0.003907 0.011719-0.007813 0.019531-0.011719 0.023438-0.015625 0.046875-0.03125 0.070312-0.050781 0.011719-0.007813 0.023438-0.019531 0.035157-0.027344 0.019531-0.019531 0.042969-0.035156 0.0625-0.054687 0.011719-0.011719 0.023437-0.019532 0.035156-0.03125 0.019531-0.019532 0.035156-0.039063 0.054687-0.058594 0.011719-0.011719 0.023438-0.023438 0.03125-0.035156 0.015626-0.019532 0.03125-0.042969 0.050782-0.066407 0.007812-0.011719 0.019531-0.023437 0.027344-0.039062 0.015624-0.023438 0.027343-0.046875 0.042968-0.070313 0.007813-0.011718 0.015625-0.027344 0.023438-0.039062 0.011718-0.023438 0.023437-0.046875 0.035156-0.070313 0.007812-0.015625 0.015625-0.03125 0.019531-0.046875 0.007813-0.019531 0.015625-0.042968 0.023438-0.0625 0.007812-0.019531 0.015625-0.039062 0.019531-0.058594 0-0.003906 0-0.003906 0.003906-0.003906 0.47656-1.5117 1.1953-2.4688 2.1914-2.9219 1.0742-0.48828 2.5391-0.42578 4.3633 0.17578-1.1367 2.3398-1.0625 5.1094 0.28125 7.4414 1.3711 2.375 3.7969 3.832 6.4492 3.9688-0.22656 2.3438-0.84375 3.9023-1.8086 4.5352-0.83594 0.55078-2.1094 0.48828-3.7852-0.17578-0.38281-0.15234-0.8125-0.12109-1.168 0.085937-0.35547 0.20703-0.59766 0.5625-0.66016 0.96875-0.26172 1.7852-0.84766 2.9219-1.7422 3.3672-1.0312 0.51953-2.6875 0.27344-4.832-0.70312 1.2031-2.3672 1.1523-5.1953-0.21484-7.5703-1.3477-2.332-3.707-3.7773-6.3047-3.9609 0.39062-1.875 1.0742-3.1719 2.0352-3.8594zm44.586 10.098c-0.50391-0.51172-1.125-0.89062-1.8047-1.1211-0.22656-0.67969-0.60938-1.2969-1.1133-1.7969-0.86719-0.87109-2.0195-1.3516-3.25-1.3516h-0.003906c-1.2305 0-2.3867 0.48047-3.2578 1.3516-1.457 1.457-1.7305 3.6641-0.82031 5.4023l-2.8516 2.8555c-2.4961-0.62109-5.582-0.59375-8.2734 0.085937-0.42578 0.10547-0.77344 0.41406-0.92969 0.82422s-0.10547 0.87109 0.14062 1.2344c1.4023 2.0742 1.1289 4.8711-0.64844 6.6445-1.8945 1.8945-4.9023 2.0664-6.9961 0.39453-0.33594-0.26953-0.78125-0.35937-1.1992-0.24609-0.41406 0.11328-0.75 0.42188-0.90234 0.82812-0.89453 2.4062-1.1211 4.8438-0.68359 7.043l-25.227-0.003906c-2.5234 0-4.5742 2.0547-4.5742 4.582 0 2.3945 1.8516 4.3672 4.1953 4.5586l7.5117 39.863c0.42188 2.2422 2.3086 3.8047 4.5859 3.8047h24.062c2.2461 0 4.1758-1.6016 4.5859-3.8047l7.5078-39.863c2.3516-0.19141 4.2031-2.1641 4.2031-4.5586 0-2.3516-1.7812-4.2969-4.0664-4.5508 2.1484-3.8672 2.3789-8.6719 1.543-12l2.8516-2.8516c1.7383 0.91406 3.9453 0.64062 5.4023-0.81641 0.87109-0.87109 1.3516-2.0312 1.3516-3.2617 0.003906-1.2305-0.47656-2.3867-1.3398-3.2461zm-29.855 17.629c2.9609 1.3672 6.5469 0.80078 8.9492-1.6016 2.2148-2.2148 2.8828-5.4766 1.8594-8.3125 1.7031-0.22656 3.4648-0.17188 4.9883 0.16406l3.2578 3.2578c0.72266 3.2695 0.19141 7.8945-2.1914 11.012l-16.832-0.003906c-0.375-1.3789-0.38672-2.9219-0.03125-4.5156zm-5.5586 13.902v40.73h-5.2031l-1.0781-12.016c-0.066407-0.73828-0.71875-1.2852-1.4609-1.2188-0.73828 0.066406-1.2852 0.71875-1.2188 1.4609l1.0547 11.777h-2.7812c-0.96484 0-1.7656-0.66406-1.9453-1.6094l-7.4102-39.352h8.4648l2.1953 24.43c0.0625 0.69922 0.64844 1.2266 1.3398 1.2266 0.039062 0 0.082031-0.003906 0.12109-0.003906 0.73828-0.066406 1.2852-0.71875 1.2188-1.4609l-2.1719-24.195h8.8984c-0.015625 0.074219-0.023437 0.15234-0.023437 0.23047zm2.6914 40.73v-40.73c0-0.078125-0.007813-0.15234-0.019531-0.23047h8.8945l-3.6758 40.961zm12.625-1.6055c-0.17578 0.94531-0.97266 1.6055-1.9414 1.6055h-2.7891l3.6758-40.961h8.4648zm11.668-43.93c0 1.0391-0.84766 1.8867-1.8906 1.8867l-47.5-0.003906c-1.0391 0-1.8867-0.84375-1.8867-1.8867s0.84375-1.8906 1.8867-1.8906h27.027 0.003907 0.007812 20.461c1.043 0.003906 1.8906 0.85156 1.8906 1.8945zm6.5234-22.125c-0.74219 0.74219-1.9531 0.74609-2.6992 0.007812-0.52734-0.52344-1.375-0.51953-1.8984 0.003906l-3.5039 3.5039-1.0352-1.0352 3.5-3.5039c0.52344-0.52344 0.52344-1.3711 0.007813-1.8945-0.73828-0.74609-0.73047-1.957 0.011719-2.6992 0.36328-0.36328 0.84375-0.5625 1.3555-0.5625h0.003907c0.50781 0 0.98828 0.19922 1.3516 0.56641 0.39453 0.39062 0.51953 0.84766 0.55078 1.1562 0.066407 0.63281 0.56641 1.1289 1.1953 1.1953 0.3125 0.03125 0.76562 0.15625 1.1641 0.55859 0.35937 0.35938 0.55859 0.83594 0.55859 1.3477s-0.19922 0.99219-0.5625 1.3555zm-49.805 16.387c0.17188 0 0.34375-0.003906 0.51562-0.011718 0.44141-0.019532 0.84766-0.25391 1.082-0.625 2.3477-3.7109 2.5273-8.2383 0.46875-11.812-0.51172-0.88672-1.1523-1.6914-1.8945-2.3984-0.24219-0.23047-0.56641-0.36328-0.90234-0.36719-1.8711-0.035156-3.4648 0.20703-4.8359 0.73828l-0.78906-1.3711 2.2852-1.3164c0.64453-0.37109 0.86328-1.1953 0.49219-1.8398-0.37109-0.64453-1.1953-0.86328-1.8398-0.49219l-2.2852 1.3203-0.95312-1.6523 4.0586-2.3438c0.64453-0.37109 0.86328-1.1953 0.49219-1.8398-0.37109-0.64453-1.1953-0.86328-1.8398-0.49219l-4.0547 2.3438-0.95312-1.6523 2.2891-1.3203c0.64453-0.37109 0.86328-1.1953 0.49219-1.8398-0.37109-0.64453-1.1953-0.86328-1.8398-0.49219l-2.2891 1.3203-1.5352-2.6602 1.1758-9.4219c0.074218-0.58984-0.25-1.1602-0.79688-1.3984-0.54687-0.23828-1.1836-0.089844-1.5664 0.36719l-3.793 4.5117-5.8047 1.0273c-0.58594 0.10547-1.0352 0.58203-1.1016 1.1758-0.066407 0.59375 0.26562 1.1562 0.8125 1.3906l8.7461 3.6953 1.5352 2.6602-2.2852 1.3203c-0.64453 0.37109-0.86328 1.1953-0.49219 1.8398 0.25 0.42969 0.69922 0.67187 1.1641 0.67187 0.22656 0 0.46094-0.058593 0.67188-0.17969l2.2812-1.3203 0.95312 1.6523-4.0547 2.3438c-0.64453 0.37109-0.86328 1.1953-0.49219 1.8398 0.25 0.43359 0.69922 0.67188 1.1641 0.67188 0.22656 0 0.46094-0.058594 0.67188-0.17969l4.0547-2.3438 0.95312 1.6523-2.2852 1.3164c-0.64453 0.37109-0.86328 1.1953-0.49219 1.8398 0.25 0.43359 0.69922 0.67188 1.168 0.67188 0.22656 0 0.46094-0.058594 0.67188-0.17969l2.2852-1.3203 0.79297 1.3711c-1.1328 0.91406-2.1406 2.1719-3.0547 3.8047-0.16406 0.29687-0.21484 0.64453-0.13281 0.97266 0.24609 1.0156 0.62891 1.9727 1.1406 2.8398 1.9766 3.4297 5.7539 5.5117 9.9453 5.5117zm-16.344-30.453-3.332-1.4062 1.8047-0.32031c0.3125-0.054688 0.59375-0.21875 0.79688-0.46094l1.1797-1.4023zm10.906 18.887c1.0664-0.61719 2.4219-0.93359 4.1172-0.96094 0.40234 0.43359 0.75781 0.91406 1.0508 1.4258 1.4453 2.5117 1.4141 5.6758-0.050781 8.4062-3.1016-0.097656-5.8516-1.6523-7.3047-4.1719-0.29688-0.50391-0.53125-1.043-0.71094-1.6133 0.89062-1.4609 1.8398-2.4727 2.8984-3.0859zm0.86328 5.8984c-0.37109-0.64453-0.14844-1.4688 0.49609-1.8359s1.4688-0.14844 1.8359 0.49609l0.21094 0.37109c0.37109 0.64453 0.14844 1.4688-0.49609 1.8359-0.21094 0.12109-0.44141 0.17969-0.66797 0.17969-0.46484 0-0.91797-0.24219-1.168-0.67578zm37.465-14.25c0.25781 0.34375 0.66016 0.53906 1.0781 0.53906 0.10156 0 0.20312-0.011719 0.30469-0.035156 3.0156-0.70312 5.4609-2.8828 6.5391-5.832 1.0781-2.957 0.61719-6.1992-1.2383-8.6797-0.32031-0.42969-0.86328-0.625-1.3828-0.50391-3.0156 0.70312-5.4609 2.8828-6.5391 5.832-1.082 2.957-0.61719 6.2031 1.2383 8.6797zm1.2891-7.7539c0.65625-1.7969 2.0234-3.1875 3.7422-3.8594 0.87891 1.6211 1.0234 3.5664 0.36719 5.3633-0.65625 1.7969-2.0234 3.1875-3.7422 3.8594-0.87891-1.6211-1.0234-3.5664-0.36719-5.3633zm-26.836 21.875c0 2.5547 2.0742 4.6289 4.625 4.6289 2.5547 0 4.6289-2.0781 4.6289-4.6289 0-2.5547-2.0781-4.6289-4.6289-4.6289-2.5508-0.003906-4.625 2.0742-4.625 4.6289zm6.5625 0c0 1.0703-0.87109 1.9375-1.9375 1.9375s-1.9336-0.87109-1.9336-1.9375c0-1.0703 0.86719-1.9375 1.9336-1.9375 1.0703-0.003906 1.9375 0.86719 1.9375 1.9375zm-18.359-23.492c2.5547 0 4.6289-2.0781 4.6289-4.6289 0-2.5508-2.0781-4.625-4.6289-4.625-2.5547 0-4.6289 2.0742-4.6289 4.625-0.003906 2.5508 2.0742 4.6289 4.6289 4.6289zm0-6.5664c1.0703 0 1.9375 0.86719 1.9375 1.9336 0 1.0703-0.87109 1.9375-1.9375 1.9375-1.0703 0-1.9375-0.87109-1.9375-1.9375-0.003907-1.0625 0.86719-1.9336 1.9375-1.9336zm33.438 1.0742c2.5508 0 4.625-2.0742 4.625-4.625 0-2.5547-2.0742-4.6289-4.625-4.6289-2.5547 0-4.6289 2.0781-4.6289 4.6289 0 2.5508 2.0742 4.625 4.6289 4.625zm0-6.5625c1.0664 0 1.9336 0.87109 1.9336 1.9375s-0.86719 1.9336-1.9336 1.9336c-1.0703 0-1.9375-0.86719-1.9375-1.9336-0.003907-1.0664 0.86719-1.9375 1.9375-1.9375z"/>
<text x="0.0" y="117.5" font-size="5.0" font-weight="bold" font-family="Arbeit Regular, Helvetica, Arial-Unicode, Arial, Sans-serif" fill="#000000">Created by kliwir art</text><text x="0.0" y="122.5" font-size="5.0" font-weight="bold" font-family="Arbeit Regular, Helvetica, Arial-Unicode, Arial, Sans-serif" fill="#000000">from Noun Project</text></svg>