<svg width="265" height="52" viewBox="0 0 265 52" fill="none" xmlns="http://www.w3.org/2000/svg">
<path d="M36.1315 20.6367H1.01459C0.454454 20.6367 0 21.0912 0 21.6513V29.4352C0 33.0365 2.93013 35.9693 6.53137 35.9693H30.6123C34.2161 35.9693 37.1463 33.0392 37.1463 29.4352V21.6513C37.1463 21.0912 36.6916 20.6367 36.1315 20.6367Z" fill="url(#paint0_linear_335_1486)"/>
<path d="M53.329 20.6396H41.4658C41.6138 20.9435 41.6957 21.2896 41.6957 21.6542V26.6743C41.6957 27.039 41.6138 27.3851 41.4658 27.6889H50.4544C52.6051 27.6889 54.3436 25.9451 54.3436 23.7997V21.6542C54.3436 21.0915 53.8918 20.6396 53.329 20.6396Z" fill="url(#paint1_linear_335_1486)"/>
<path d="M39.3281 20.6367C38.7679 20.6367 38.3135 21.0912 38.3135 21.6513V26.6688C38.3135 27.2289 38.7679 27.6834 39.3281 27.6834C39.8882 27.6834 40.3427 27.2289 40.3427 26.6688V21.6513C40.3427 21.0912 39.8882 20.6367 39.3281 20.6367Z" fill="url(#paint2_linear_335_1486)"/>
<path d="M10.8147 10.9006C11.6021 11.5347 12.4899 12.2507 12.5295 13.1041C12.5639 13.8333 12.0011 14.7819 10.8993 15.8493C10.4977 16.2404 10.4871 16.8824 10.8781 17.284C11.0763 17.4901 11.3405 17.5905 11.6074 17.5905C11.861 17.5905 12.1173 17.4954 12.3155 17.3051C13.8875 15.778 14.6221 14.375 14.5587 13.0116C14.4768 11.2466 13.0975 10.1343 12.0909 9.32055C11.7739 9.0669 11.4779 8.82646 11.3115 8.63888C10.8571 8.12102 10.6642 7.61638 10.725 7.09319C10.8412 6.07332 11.8822 5.11948 12.2759 4.83945C12.7304 4.51447 12.8387 3.88297 12.5164 3.42857C12.194 2.97147 11.5599 2.86314 11.1028 3.18549C10.8835 3.33873 8.95738 4.75755 8.71165 6.85017C8.58218 7.94931 8.95473 9.03262 9.78968 9.97848C10.0671 10.2955 10.4316 10.5888 10.8147 10.9006Z" fill="url(#paint3_linear_335_1486)"/>
<path d="M17.7659 10.9006C18.5533 11.5347 19.4411 12.2507 19.4807 13.1041C19.515 13.8333 18.9523 14.7819 17.8505 15.8493C17.4488 16.2404 17.4383 16.8824 17.8293 17.284C18.0275 17.4901 18.2917 17.5905 18.5585 17.5905C18.8122 17.5905 19.0685 17.4954 19.2667 17.3051C20.8387 15.778 21.5733 14.375 21.5098 13.0116C21.4279 11.2466 20.0487 10.1343 19.0421 9.32055C18.725 9.0669 18.4291 8.82646 18.2627 8.63888C17.8082 8.12102 17.6154 7.61638 17.6761 7.09319C17.7924 6.07332 18.8334 5.11948 19.2271 4.83945C19.6815 4.51447 19.7899 3.88297 19.4675 3.42857C19.1452 2.97147 18.511 2.86314 18.054 3.18549C17.8347 3.33873 15.9086 4.75755 15.6628 6.85017C15.5334 7.94931 15.9059 9.03262 16.7409 9.97848C17.0183 10.2955 17.3802 10.5888 17.7659 10.9006Z" fill="url(#paint4_linear_335_1486)"/>
<path d="M24.7173 10.9009C25.5047 11.535 26.3925 12.251 26.4347 13.1044C26.4691 13.831 25.9037 14.7796 24.8045 15.8496C24.4029 16.2406 24.3923 16.8827 24.7834 17.2843C24.9815 17.4904 25.2457 17.5934 25.5126 17.5934C25.7662 17.5934 26.0225 17.4983 26.2207 17.3081C27.7928 15.7809 28.5273 14.3779 28.4639 13.0145C28.382 11.2496 27.0027 10.1372 25.9935 9.32347C25.6764 9.06983 25.3805 8.82939 25.2141 8.64181C24.7596 8.12395 24.5667 7.61931 24.6275 7.09612C24.7438 6.07625 25.7848 5.12241 26.1785 4.84238C26.6329 4.51739 26.7413 3.8859 26.4189 3.4315C26.0966 2.9744 25.4624 2.86607 25.0054 3.18841C24.7861 3.34166 22.86 4.76048 22.6169 6.8531C22.4875 7.95224 22.86 9.03291 23.695 9.98141C23.9697 10.2985 24.3316 10.5891 24.7173 10.9009Z" fill="url(#paint5_linear_335_1486)"/>
<path d="M36.1292 40.6852H30.4143L29.9413 38.3707C29.8462 37.8978 29.4261 37.5596 28.9478 37.5596L8.20155 37.5622C7.72068 37.5622 7.30324 37.9004 7.20807 38.3733L6.73512 40.6879L1.01752 40.6852C0.457384 40.6852 0.00292969 41.1397 0.00292969 41.6998C0.00292969 42.26 0.457384 42.7144 1.01752 42.7144H36.129C36.6891 42.7144 37.1436 42.26 37.1436 41.6998C37.1436 41.1397 36.692 40.6852 36.1292 40.6852Z" fill="url(#paint6_linear_335_1486)"/>
<path d="M65.043 36C64.2227 36 63.8125 35.5605 63.8125 34.6816V12.1113C63.8125 11.2324 64.2227 10.793 65.043 10.793H73.1816C76.8027 10.793 79.4453 11.3555 81.1094 12.4805C82.7734 13.5937 83.6055 15.4102 83.6055 17.9297C83.6055 19.8047 82.9316 21.2988 81.584 22.4121C80.2363 23.5254 78.5254 24.2637 76.4512 24.627V24.6621C77.5762 25.084 78.4258 25.6699 79 26.4199C79.5742 27.1699 80.043 27.8262 80.4062 28.3887L84.2734 34.4883C84.918 35.4961 84.6953 36 83.6055 36H80.5469C79.9023 36 79.375 35.6543 78.9648 34.9629L75.4141 29.0391C75.0273 28.4062 74.3184 27.7148 73.2871 26.9648C72.2676 26.2031 71.2539 25.8223 70.2461 25.8223H68.9453V34.6816C68.9453 35.5605 68.5352 36 67.7148 36H65.043ZM68.9453 21.4629H72.0918C74.4355 21.4629 76.0996 21.1992 77.084 20.6719C78.0801 20.1328 78.5781 19.2832 78.5781 18.123C78.5781 16.8574 78.0977 16.0371 77.1367 15.6621C76.1875 15.2754 74.7871 15.082 72.9355 15.082H68.9453V21.4629ZM88.123 36C87.2793 36 87.0039 35.6133 87.2969 34.8398L95.9102 12.2168C96.2734 11.2676 96.8242 10.793 97.5625 10.793H100.023C100.762 10.793 101.312 11.2676 101.676 12.2168L110.289 34.8398C110.582 35.6133 110.307 36 109.463 36H106.668C105.895 36 105.355 35.5957 105.051 34.7871L103.258 30.0586H94.3281L92.5352 34.7871C92.2305 35.5957 91.6914 36 90.918 36H88.123ZM95.9629 25.6992H101.623L99.4609 20.1094C99.2031 19.4531 99.0449 18.9785 98.9863 18.6855C98.9395 18.3809 98.8867 17.9355 98.8281 17.3496H98.7578C98.6992 17.9355 98.6406 18.3809 98.582 18.6855C98.5352 18.9785 98.3828 19.4531 98.125 20.1094L95.9629 25.6992ZM112.117 23.3965C112.117 19.3535 113.172 16.1426 115.281 13.7637C117.391 11.3848 120.379 10.1953 124.246 10.1953C126.578 10.1953 128.406 10.4941 129.73 11.0918C131.066 11.6895 132.238 12.6152 133.246 13.8691C133.855 14.6309 133.838 15.2227 133.193 15.6445L131.189 16.9453C130.604 17.332 129.977 17.1621 129.309 16.4355C128.758 15.8379 128.061 15.3398 127.217 14.9414C126.373 14.543 125.441 14.3438 124.422 14.3438C121.961 14.3438 120.209 15.123 119.166 16.6816C118.123 18.2285 117.602 20.4668 117.602 23.3965C117.602 26.3262 118.123 28.5703 119.166 30.1289C120.209 31.6758 121.961 32.4492 124.422 32.4492C125.617 32.4492 126.648 32.332 127.516 32.0977C128.383 31.8516 129.203 31.4121 129.977 30.7793V27.6328H126.162C125.283 27.6328 124.844 27.252 124.844 26.4902V24.416C124.844 23.6543 125.283 23.2734 126.162 23.2734H133.791C134.67 23.2734 135.109 23.6543 135.109 24.416V33.3457C133.469 34.5527 131.811 35.3965 130.135 35.877C128.471 36.3574 126.508 36.5977 124.246 36.5977C120.438 36.5977 117.461 35.4082 115.316 33.0293C113.184 30.6504 112.117 27.4395 112.117 23.3965ZM138.484 31.0781C138.484 28.7344 139.604 27.0352 141.842 25.9805C144.08 24.9258 146.635 24.3633 149.506 24.293V23.5898C149.506 22.5117 149.236 21.75 148.697 21.3047C148.158 20.8594 147.408 20.6367 146.447 20.6367C145.768 20.6367 145.164 20.7363 144.637 20.9355C144.121 21.123 143.67 21.3457 143.283 21.6035C142.908 21.8496 142.568 22.1016 142.264 22.3594C141.725 22.8281 141.279 22.8516 140.928 22.4297L139.469 20.6367C139.105 20.1914 139.193 19.7344 139.732 19.2656C140.143 18.9023 140.617 18.5859 141.156 18.3164C141.707 18.0469 142.434 17.7949 143.336 17.5605C144.238 17.3145 145.41 17.1914 146.852 17.1914C149.289 17.1914 151.158 17.7539 152.459 18.8789C153.771 20.0039 154.428 21.6621 154.428 23.8535V34.9453C154.428 35.6484 154.076 36 153.373 36H150.49C149.857 36 149.541 35.6484 149.541 34.9453V34.418H149.506C148.814 35.0859 147.982 35.5781 147.01 35.8945C146.049 36.1992 145.164 36.3516 144.355 36.3516C142.434 36.3516 140.975 35.8828 139.979 34.9453C138.982 33.9961 138.484 32.707 138.484 31.0781ZM143.688 30.9727C143.688 31.3828 143.77 31.7402 143.934 32.0449C144.098 32.3379 144.355 32.5547 144.707 32.6953C145.059 32.8359 145.451 32.9062 145.885 32.9062C146.482 32.9062 147.062 32.8242 147.625 32.6602C148.188 32.4961 148.814 32.1094 149.506 31.5V27.6855C147.537 27.9082 146.219 28.1953 145.551 28.5469C144.883 28.8984 144.402 29.2617 144.109 29.6367C143.828 30.0117 143.688 30.457 143.688 30.9727ZM160.281 36C159.578 36 159.227 35.6484 159.227 34.9453V14.1855C159.227 13.6582 159.35 13.1777 159.596 12.7441L160.949 10.3711C161.207 9.92578 161.512 9.70312 161.863 9.70312H163.094C163.797 9.70312 164.148 10.0547 164.148 10.7578V34.9453C164.148 35.6484 163.797 36 163.094 36H160.281ZM169.984 36C169.281 36 168.93 35.6484 168.93 34.9453V18.5977C168.93 17.8945 169.281 17.543 169.984 17.543H172.797C173.5 17.543 173.852 17.8945 173.852 18.5977V34.9453C173.852 35.6484 173.5 36 172.797 36H169.984ZM169.984 14.8359C169.281 14.8359 168.93 14.4844 168.93 13.7812V11.5312C168.93 10.8281 169.281 10.4766 169.984 10.4766H172.797C173.5 10.4766 173.852 10.8281 173.852 11.5312V13.7812C173.852 14.4844 173.5 14.8359 172.797 14.8359H169.984ZM177.648 26.7715C177.648 23.7832 178.398 21.4395 179.898 19.7402C181.398 18.041 183.701 17.1914 186.807 17.1914C188.623 17.1914 190.035 17.4316 191.043 17.9121C192.051 18.3926 192.859 19.0957 193.469 20.0215C193.832 20.5723 193.773 21.0059 193.293 21.3223L191.43 22.5527C190.902 22.9043 190.439 22.7695 190.041 22.1484C189.842 21.8438 189.461 21.5156 188.898 21.1641C188.336 20.8125 187.639 20.6367 186.807 20.6367C185.482 20.6367 184.492 21.1055 183.836 22.043C183.18 22.9688 182.852 24.5449 182.852 26.7715C182.852 28.998 183.18 30.5801 183.836 31.5176C184.492 32.4434 185.482 32.9062 186.807 32.9062C187.756 32.9062 188.523 32.707 189.109 32.3086C189.695 31.9102 190.246 31.3945 190.762 30.7617C191.207 30.2227 191.676 30.1465 192.168 30.5332L193.803 31.8164C194.295 32.2031 194.324 32.7188 193.891 33.3633C193.434 34.043 192.654 34.7109 191.553 35.3672C190.463 36.0234 188.881 36.3516 186.807 36.3516C183.701 36.3516 181.398 35.502 179.898 33.8027C178.398 32.1035 177.648 29.7598 177.648 26.7715ZM198.777 36C198.074 36 197.723 35.6484 197.723 34.9453V18.5977C197.723 17.8945 198.074 17.543 198.777 17.543H201.59C202.293 17.543 202.645 17.8945 202.645 18.5977V34.9453C202.645 35.6484 202.293 36 201.59 36H198.777ZM198.777 14.8359C198.074 14.8359 197.723 14.4844 197.723 13.7812V11.5312C197.723 10.8281 198.074 10.4766 198.777 10.4766H201.59C202.293 10.4766 202.645 10.8281 202.645 11.5312V13.7812C202.645 14.4844 202.293 14.8359 201.59 14.8359H198.777ZM206.441 26.7715C206.441 23.7832 207.209 21.4395 208.744 19.7402C210.291 18.041 212.588 17.1914 215.635 17.1914C218.682 17.1914 220.973 18.041 222.508 19.7402C224.055 21.4395 224.828 23.7832 224.828 26.7715C224.828 29.7598 224.055 32.1035 222.508 33.8027C220.973 35.502 218.682 36.3516 215.635 36.3516C212.588 36.3516 210.291 35.502 208.744 33.8027C207.209 32.1035 206.441 29.7598 206.441 26.7715ZM211.645 26.7715C211.645 28.998 211.984 30.5801 212.664 31.5176C213.355 32.4434 214.346 32.9062 215.635 32.9062C216.924 32.9062 217.908 32.4434 218.588 31.5176C219.279 30.5801 219.625 28.998 219.625 26.7715C219.625 24.5449 219.279 22.9688 218.588 22.043C217.908 21.1055 216.924 20.6367 215.635 20.6367C214.346 20.6367 213.355 21.1055 212.664 22.043C211.984 22.9688 211.645 24.5449 211.645 26.7715ZM228.59 28.3359V18.5977C228.59 17.8945 228.941 17.543 229.645 17.543H232.457C233.16 17.543 233.512 17.8945 233.512 18.5977V27.0703C233.512 29.625 233.688 31.2363 234.039 31.9043C234.391 32.5723 235.129 32.9062 236.254 32.9062C237.449 32.9062 238.357 32.4316 238.979 31.4824C239.6 30.5215 239.91 28.5352 239.91 25.5234V18.5977C239.91 17.8945 240.262 17.543 240.965 17.543H243.777C244.48 17.543 244.832 17.8945 244.832 18.5977V34.9453C244.832 35.6484 244.48 36 243.777 36H241C240.297 36 239.945 35.6484 239.945 34.9453V33.9258H239.875C239.336 34.8516 238.65 35.4902 237.818 35.8418C236.986 36.1816 236.002 36.3516 234.865 36.3516C233.072 36.3516 231.578 35.7773 230.383 34.6289C229.188 33.4805 228.59 31.3828 228.59 28.3359ZM249.244 34.7695C248.67 34.3594 248.512 33.9199 248.77 33.4512L249.666 31.8164C249.982 31.2305 250.475 31.1602 251.143 31.6055C251.811 32.0508 252.596 32.3789 253.498 32.5898C254.412 32.8008 255.244 32.9062 255.994 32.9062C256.521 32.9062 257.014 32.8535 257.471 32.748C257.928 32.6426 258.314 32.4375 258.631 32.1328C258.947 31.8281 259.105 31.3828 259.105 30.7969C259.105 30.4453 259.012 30.1465 258.824 29.9004C258.637 29.6543 258.396 29.4668 258.104 29.3379C257.811 29.209 257.5 29.1035 257.172 29.0215C256.738 28.916 256.111 28.7402 255.291 28.4941C254.482 28.248 253.703 27.9609 252.953 27.6328C252.332 27.3633 251.723 26.9883 251.125 26.5078C250.539 26.0156 250.105 25.4707 249.824 24.873C249.555 24.2754 249.42 23.5371 249.42 22.6582C249.42 21.4746 249.76 20.4375 250.439 19.5469C251.131 18.6562 252.021 18.041 253.111 17.7012C254.201 17.3613 255.561 17.1914 257.189 17.1914C258.291 17.1914 259.363 17.3496 260.406 17.666C261.449 17.9824 262.193 18.2812 262.639 18.5625C263.342 19.0078 263.518 19.4824 263.166 19.9863L262.094 21.5508C261.766 22.0195 261.238 22.0547 260.512 21.6562C259.961 21.3516 259.416 21.1055 258.877 20.918C258.35 20.7305 257.758 20.6367 257.102 20.6367C256.656 20.6367 256.229 20.6836 255.818 20.7773C255.408 20.8711 255.057 21.0469 254.764 21.3047C254.482 21.5625 254.342 21.9023 254.342 22.3242C254.342 22.7695 254.471 23.1211 254.729 23.3789C254.998 23.625 255.303 23.8066 255.643 23.9238C255.994 24.041 256.328 24.1523 256.645 24.2578C257.301 24.4688 257.963 24.6738 258.631 24.873C259.299 25.0605 259.979 25.2891 260.67 25.5586C261.268 25.793 261.848 26.127 262.41 26.5605C262.973 26.9941 263.383 27.5449 263.641 28.2129C263.898 28.8809 264.027 29.6426 264.027 30.498C264.027 31.6348 263.688 32.6895 263.008 33.6621C262.328 34.6348 261.432 35.3262 260.318 35.7363C259.205 36.1465 257.91 36.3516 256.434 36.3516C254.781 36.3516 253.375 36.2344 252.215 36C251.055 35.7656 250.064 35.3555 249.244 34.7695Z" fill="#DA6F21"/>
<defs>
<linearGradient id="paint0_linear_335_1486" x1="18.5732" y1="20.6367" x2="18.5732" y2="35.9693" gradientUnits="userSpaceOnUse">
<stop stop-color="#F9E31E"/>
<stop offset="1" stop-color="#FCEF77"/>
</linearGradient>
<linearGradient id="paint1_linear_335_1486" x1="47.9047" y1="20.6396" x2="47.9047" y2="27.6889" gradientUnits="userSpaceOnUse">
<stop stop-color="#F9E31E"/>
<stop offset="1" stop-color="#FCEF77"/>
</linearGradient>
<linearGradient id="paint2_linear_335_1486" x1="39.3281" y1="20.6367" x2="39.3281" y2="27.6834" gradientUnits="userSpaceOnUse">
<stop stop-color="#F9E31E"/>
<stop offset="1" stop-color="#FCEF77"/>
</linearGradient>
<linearGradient id="paint3_linear_335_1486" x1="11.6245" y1="3" x2="11.6245" y2="17.5905" gradientUnits="userSpaceOnUse">
<stop stop-color="#F9E31E"/>
<stop offset="1" stop-color="#FCEF77"/>
</linearGradient>
<linearGradient id="paint4_linear_335_1486" x1="18.5757" y1="3" x2="18.5757" y2="17.5905" gradientUnits="userSpaceOnUse">
<stop stop-color="#F9E31E"/>
<stop offset="1" stop-color="#FCEF77"/>
</linearGradient>
<linearGradient id="paint5_linear_335_1486" x1="25.5297" y1="3.00293" x2="25.5297" y2="17.5934" gradientUnits="userSpaceOnUse">
<stop stop-color="#F9E31E"/>
<stop offset="1" stop-color="#FCEF77"/>
</linearGradient>
<linearGradient id="paint6_linear_335_1486" x1="18.5733" y1="37.5596" x2="18.5733" y2="42.7144" gradientUnits="userSpaceOnUse">
<stop stop-color="#F9E31E"/>
<stop offset="1" stop-color="#FCEF77"/>
</linearGradient>
</defs>
</svg>
