<svg width="294" height="170" viewBox="0 0 294 170" fill="none" xmlns="http://www.w3.org/2000/svg">
<path d="M288.859 141.569H261.67C261.499 111.223 249.309 80.7792 228.153 57.9476C209.028 37.3077 184.778 24.7103 158.87 21.7129C160.214 19.5439 160.992 16.9892 160.992 14.2554C160.992 6.42531 154.622 0.0548096 146.791 0.0548096C138.961 0.0548096 132.591 6.42531 132.591 14.2554C132.591 16.9892 133.369 19.5439 134.714 21.7129C108.805 24.7102 84.555 37.3076 65.4302 57.9476C44.2743 80.7792 32.0839 111.223 31.9136 141.569H4.7241C2.11495 141.569 0 143.684 0 146.293C0 148.902 2.11495 151.017 4.7241 151.017H288.859C291.468 151.017 293.583 148.902 293.583 146.293C293.583 143.684 291.468 141.569 288.859 141.569ZM146.791 19.0077C144.171 19.0077 142.039 16.8758 142.039 14.2554C142.039 11.635 144.171 9.50302 146.791 9.50302C149.412 9.50302 151.544 11.635 151.544 14.2554C151.544 16.8758 149.412 19.0077 146.791 19.0077Z" fill="url(#paint0_linear_332_1442)"/>
<path d="M277.049 159.875H16.5344C13.9253 159.875 11.8103 161.99 11.8103 164.599C11.8103 167.208 13.9253 169.323 16.5344 169.323H277.049C279.658 169.323 281.773 167.208 281.773 164.599C281.773 161.99 279.658 159.875 277.049 159.875Z" fill="url(#paint1_linear_332_1442)"/>
<defs>
<linearGradient id="paint0_linear_332_1442" x1="146.792" y1="0.0548096" x2="146.792" y2="151.017" gradientUnits="userSpaceOnUse">
<stop stop-color="#42D22B"/>
<stop offset="1" stop-color="#94E08E"/>
</linearGradient>
<linearGradient id="paint1_linear_332_1442" x1="146.792" y1="159.875" x2="146.792" y2="169.323" gradientUnits="userSpaceOnUse">
<stop stop-color="#42D22B"/>
<stop offset="1" stop-color="#94E08E"/>
</linearGradient>
</defs>
</svg>
