<svg width="90" height="90" viewBox="0 0 90 90" fill="none" xmlns="http://www.w3.org/2000/svg">
<path d="M38.9053 45.5601C35.1537 45.5601 32.3246 46.9903 32.3246 48.8867C32.3246 50.7831 35.1539 52.2133 38.9053 52.2133C42.657 52.2133 45.4861 50.7831 45.4861 48.8867C45.4861 46.9903 42.657 45.5601 38.9053 45.5601ZM38.9053 50.7847C35.7915 50.7847 33.8797 49.6793 33.8797 48.8867C33.8797 48.094 35.7916 46.9887 38.9053 46.9887C42.0193 46.9887 43.931 48.094 43.931 48.8867C43.931 49.6793 42.0193 50.7847 38.9053 50.7847ZM61.5806 47.1911C61.6208 47.5838 61.3067 47.932 60.8792 47.969C57.2804 48.2795 54.4211 49.7056 52.138 52.3284C51.9845 52.5049 51.7584 52.5967 51.5302 52.5967C51.3599 52.5967 51.1885 52.5456 51.0452 52.4402C50.7097 52.1938 50.6553 51.7445 50.9235 51.4363C53.4482 48.5358 56.749 46.8906 60.7338 46.5467C61.1625 46.5097 61.5405 46.7985 61.5806 47.1911ZM50.4248 41.8764C50.6283 42.2237 50.4866 42.6569 50.1087 42.844C50.0136 42.891 48.0889 43.8294 46.0877 43.8294C45.7254 43.8294 45.3605 43.7987 45.0034 43.7263C43.9707 43.5169 43.1401 43.0151 42.3369 42.5296C41.3955 41.9605 40.5064 41.4233 39.3677 41.4233C37.2903 41.4233 35.4005 42.9147 35.3817 42.9299C35.058 43.1883 34.5672 43.158 34.285 42.8614C34.0027 42.5648 34.035 42.1146 34.3573 41.8549C34.4516 41.7789 36.6967 39.9948 39.3675 39.9948C40.9721 39.9948 42.1511 40.7073 43.1914 41.3362C43.9083 41.7696 44.5857 42.1789 45.3385 42.3314C46.8081 42.6299 48.748 41.8946 49.3712 41.5862C49.7503 41.3994 50.2212 41.5292 50.4248 41.8764ZM78.3991 11.7387C72.9747 12.8846 67.3965 20.3654 63.9005 25.9654C57.7827 24.9074 51.1875 24.3695 44.2844 24.3695C32.5723 24.3695 21.5498 25.9449 13.2474 28.8057C4.70464 31.7493 0 35.7514 0 40.0748V46.0326C0 56.292 4.61231 65.9351 12.9873 73.1856C15.7683 75.5931 18.8551 77.6386 22.1695 79.2997V82.2099C22.1695 83.9259 23.2124 85.47 24.8915 86.2389C27.9571 87.6436 34.5534 90 44.2846 90C54.0158 90 60.612 87.6438 63.6778 86.2389C65.3568 85.4698 66.3997 83.9259 66.3997 82.2099V79.2997C69.7143 77.6386 72.8011 75.5931 75.5819 73.1856C83.9569 65.9351 88.5692 56.2922 88.5692 46.0326V40.0748C88.5692 35.6553 83.7166 31.6155 74.8839 28.6579C75.0606 28.2056 75.2416 27.7552 75.4305 27.31C77.3275 22.8408 79.51 19.5536 80.991 18.9363C82.0438 18.4979 83.0781 18.6929 84.154 19.5327C84.9335 20.1411 85.9635 20.406 86.9786 20.2599C88.0069 20.1117 88.9111 19.5608 89.4599 18.7485C90.2292 17.609 90.1727 16.1785 89.3158 15.1044C87.87 13.2915 84.5301 10.4444 78.3991 11.7387ZM13.7934 30.1432C21.9258 27.3413 32.7542 25.7981 44.2844 25.7981C50.7989 25.7981 57.2762 26.3097 63.096 27.28C62.0002 29.1064 61.1796 30.6227 60.7278 31.4841C59.5778 30.8795 58.2008 30.5261 56.7214 30.5261C54.4858 30.5261 52.4835 31.3312 51.1475 32.595C48.8891 32.4646 46.5834 32.3964 44.2846 32.3964C37.7926 32.3964 31.5526 32.9057 25.7333 33.9086C24.6856 33.6528 23.5512 33.5116 22.3662 33.5116C18.6187 33.5116 15.3706 34.9127 13.8111 36.9446C8.77773 38.7507 5.0104 40.983 2.82613 43.446C1.99048 42.3423 1.55506 41.209 1.55506 40.0748C1.55506 36.4432 6.01575 32.8232 13.7934 30.1432ZM73.2956 44.6365C73.2956 46.0865 71.5617 47.2662 69.4305 47.2662C67.2993 47.2662 65.5654 46.0867 65.5654 44.6365C65.5654 43.1864 67.2993 42.0067 69.4305 42.0067C71.5617 42.0067 73.2956 43.1865 73.2956 44.6365ZM69.4307 48.6947C72.4193 48.6947 74.8509 46.8744 74.8509 44.6365C74.8509 43.0506 73.6288 41.6751 71.8533 41.0078C71.9322 39.9482 72.0819 38.8157 72.2965 37.6357C78.1577 39.4985 82.5231 41.9356 84.7329 44.5772C82.6763 46.582 79.2849 48.4519 74.7756 50.0058C66.6433 52.8077 55.8148 54.3509 44.2846 54.3509C32.7544 54.3509 21.926 52.8077 13.7936 50.0058C9.28351 48.4517 5.89173 46.5813 3.83536 44.5762C5.60308 42.4574 8.71086 40.4915 12.9167 38.8255C12.8584 39.0996 12.8259 39.3791 12.8259 39.6633C12.8259 43.0556 17.1059 45.8154 22.3664 45.8154C27.627 45.8154 31.9067 43.0556 31.9067 39.6633C31.9067 37.7603 30.5595 36.0566 28.4481 34.9273C33.4699 34.1961 38.7836 33.8248 44.2848 33.8248C46.2189 33.8248 48.1573 33.8746 50.0681 33.9684C49.6684 34.6834 49.4445 35.4734 49.4445 36.3046C49.4445 39.4912 52.7089 42.0835 56.7218 42.0835C58.9197 42.0835 60.8917 41.3046 62.2271 40.0774L65.4624 41.8762C64.5626 42.601 64.0109 43.571 64.0109 44.6362C64.0105 46.8744 66.4421 48.6947 69.4307 48.6947ZM30.3515 39.6637C30.3515 42.2683 26.7692 44.3872 22.3662 44.3872C17.9631 44.3872 14.3808 42.2683 14.3808 39.6637C14.3808 37.0592 17.9631 34.9403 22.3662 34.9403C26.7692 34.9403 30.3515 37.0592 30.3515 39.6637ZM56.7214 40.6555C53.5664 40.6555 50.9992 38.7039 50.9992 36.3051C50.9992 33.9064 53.5662 31.955 56.7214 31.955C59.8766 31.955 62.4436 33.9066 62.4436 36.3051C62.4434 38.7039 59.8764 40.6555 56.7214 40.6555ZM64.8444 82.2099C64.8444 83.3809 64.1315 84.4349 62.9836 84.9607C60.0401 86.3091 53.697 88.5714 44.2846 88.5714C34.8722 88.5714 28.5289 86.3091 25.5856 84.9607C24.4378 84.4349 23.7248 83.3808 23.7248 82.2099V80.0433C29.9919 82.897 37.004 84.4118 44.2848 84.4118C51.5656 84.4118 58.5776 82.897 64.8448 80.0433V82.2099H64.8444ZM87.014 46.0326C87.014 66.4073 67.8457 82.9833 44.2846 82.9833C20.7235 82.9833 1.55506 66.4071 1.55506 46.0326V44.2849C3.58694 46.9612 7.5675 49.3865 13.2474 51.3434C21.5498 54.2043 32.5723 55.7797 44.2844 55.7797C55.9965 55.7797 67.019 54.2043 75.3215 51.3434C81.0013 49.3865 84.9821 46.9612 87.0138 44.2849V46.0326H87.014ZM87.014 40.0748C87.014 41.2094 86.5785 42.3428 85.7427 43.4467C83.2455 40.6223 78.7338 38.1398 72.5814 36.2144C73.0211 34.1991 73.6288 32.0884 74.376 30.0079C82.4197 32.7078 87.014 36.3571 87.014 40.0748ZM88.1383 17.9954C87.8286 18.4538 87.3182 18.7649 86.7376 18.8485C86.17 18.9299 85.595 18.7829 85.1609 18.444C83.623 17.2433 81.9589 16.9635 80.3482 17.6353C76.4244 19.2711 71.0773 31.6748 70.3214 40.634C70.0313 40.598 69.7341 40.5783 69.4307 40.5783C68.5354 40.5783 67.6908 40.7428 66.9457 41.0319L63.1918 38.9446C63.7061 38.1526 63.9987 37.2557 63.9987 36.305C63.9987 34.7709 63.2406 33.3757 62.008 32.34C63.5199 29.4511 71.5829 14.6446 78.7478 13.131C83.7454 12.0749 86.5715 14.0803 88.0615 15.9487C88.5414 16.5503 88.5715 17.3537 88.1383 17.9954ZM57.4266 13.1249C57.4266 14.5347 58.6827 15.4062 60.0127 16.3288C61.2281 17.172 62.4848 18.0438 62.6392 19.3942C62.9634 22.2326 59.4227 23.4675 59.2719 23.5186C59.1831 23.5488 59.0921 23.5631 59.0025 23.5631C58.6862 23.5631 58.389 23.3845 58.2732 23.0961C58.1243 22.7261 58.3303 22.3152 58.7331 22.1786C58.7568 22.1704 61.2904 21.2752 61.0925 19.5435C61.0087 18.8101 60.0696 18.1585 59.0756 17.4688C57.6482 16.4785 55.8717 15.246 55.8717 13.1249C55.8717 10.851 57.8222 9.52049 59.543 8.34693C60.6203 7.61211 61.6379 6.91801 62.1278 6.08105C63.3207 4.04302 61.484 1.10518 61.4653 1.07572C61.2493 0.735543 61.3735 0.298224 61.7438 0.0989399C62.1134 -0.0999874 62.5894 0.0130475 62.8069 0.353045C62.9014 0.50108 65.1063 4.00909 63.4978 6.75765C62.8437 7.87532 61.6371 8.69817 60.4703 9.49388C58.9047 10.5612 57.4266 11.5696 57.4266 13.1249ZM18.6726 17.0956C17.3815 19.4754 21.1358 22.9504 21.1739 22.9847C21.4808 23.2606 21.4859 23.7129 21.1857 23.9947C21.0335 24.1377 20.832 24.2093 20.6302 24.2093C20.4339 24.2093 20.2375 24.1415 20.0863 24.0054C19.8968 23.8352 15.4697 19.7969 17.2808 16.4581C18.1901 14.7819 20.1322 13.9805 21.8457 13.2731C23.3972 12.6328 24.8629 12.0278 25.2845 10.9344C25.8686 9.41995 25.082 7.9355 24.3211 6.50015C23.8737 5.65587 23.4509 4.85873 23.309 4.06249C22.8761 1.63482 25.1846 0.181975 25.2831 0.121261C25.6394 -0.0987375 26.1227 -0.0110594 26.362 0.316796C26.6005 0.643401 26.5064 1.08572 26.1522 1.3059C26.0844 1.34858 24.5742 2.32071 24.8436 3.83177C24.9488 4.42159 25.3232 5.12748 25.7193 5.87498C26.5359 7.4155 27.5524 9.33281 26.7505 11.4117C26.1067 13.0808 24.2646 13.841 22.4831 14.5765C20.8635 15.2449 19.3341 15.8762 18.6726 17.0956Z" fill="url(#paint0_linear_328_1425)"/>
<defs>
<linearGradient id="paint0_linear_328_1425" x1="45" y1="0" x2="45" y2="90" gradientUnits="userSpaceOnUse">
<stop stop-color="#0779FF"/>
<stop offset="1" stop-color="#1ABAFF"/>
</linearGradient>
</defs>
</svg>
