<svg width="91" height="91" viewBox="0 0 91 91" fill="none" xmlns="http://www.w3.org/2000/svg">
<path fill-rule="evenodd" clip-rule="evenodd" d="M70.64 20.19L46.79 26.58L50.02 38.63C52.23 38.34 54.43 37.98 56.39 37.39C58.52 36.74 60.37 35.82 61.62 34.41C67.34 27.93 68.91 27.39 72.5 27.12L70.64 20.2V20.19ZM60.24 4.29C60.59 4.29 60.93 4.22 61.24 4.09C61.56 3.96 61.87 3.76 62.13 3.5C62.39 3.24 62.59 2.94 62.72 2.61C62.85 2.3 62.92 1.96 62.92 1.61V1.55C62.92 0.97 63.39 0.51 63.97 0.5C64.55 0.5 65.02 0.97 65.02 1.55V1.61C65.02 1.96 65.09 2.3 65.22 2.61C65.35 2.93 65.55 3.24 65.81 3.5C66.07 3.76 66.37 3.96 66.7 4.09C67.01 4.22 67.35 4.29 67.7 4.29H67.76C68.34 4.29 68.8 4.76 68.81 5.34C68.81 5.92 68.34 6.39 67.76 6.39H67.7C67.35 6.39 67.01 6.46 66.7 6.59C66.38 6.72 66.07 6.92 65.81 7.18C65.55 7.44 65.35 7.74 65.22 8.07C65.09 8.38 65.02 8.72 65.02 9.07V9.13C65.02 9.71 64.55 10.17 63.97 10.18C63.39 10.18 62.92 9.71 62.92 9.13V9.07C62.92 8.72 62.85 8.38 62.72 8.07C62.59 7.75 62.39 7.44 62.13 7.18C61.87 6.92 61.57 6.72 61.24 6.59C60.93 6.46 60.59 6.39 60.24 6.39H60.18C59.6 6.39 59.14 5.92 59.13 5.34C59.13 4.76 59.6 4.29 60.18 4.29H60.24ZM63.62 4.99C63.49 5.12 63.36 5.24 63.22 5.35C63.36 5.46 63.49 5.58 63.62 5.71C63.75 5.84 63.86 5.97 63.98 6.11C64.09 5.97 64.21 5.84 64.34 5.71C64.47 5.58 64.6 5.46 64.74 5.35C64.6 5.24 64.47 5.12 64.34 4.99C64.21 4.86 64.1 4.73 63.98 4.59C63.87 4.73 63.75 4.86 63.62 4.99ZM20.29 11.63C20.64 11.63 20.98 11.56 21.29 11.43C21.61 11.3 21.92 11.1 22.18 10.84C22.44 10.58 22.64 10.28 22.77 9.95C22.9 9.64 22.97 9.29 22.97 8.95V8.89C22.97 8.31 23.44 7.85 24.02 7.84C24.6 7.84 25.07 8.31 25.07 8.89V8.95C25.07 9.3 25.14 9.64 25.27 9.95C25.4 10.27 25.6 10.58 25.86 10.84C26.12 11.1 26.42 11.3 26.75 11.43C27.06 11.56 27.4 11.63 27.75 11.63H27.81C28.39 11.63 28.85 12.1 28.86 12.68C28.86 13.26 28.39 13.73 27.81 13.73H27.75C27.4 13.73 27.06 13.8 26.75 13.93C26.43 14.06 26.12 14.26 25.86 14.52C25.6 14.78 25.4 15.08 25.27 15.41C25.14 15.73 25.07 16.06 25.07 16.41V16.47C25.07 17.05 24.6 17.51 24.02 17.52C23.44 17.52 22.97 17.05 22.97 16.47V16.41C22.97 16.06 22.9 15.72 22.77 15.41C22.64 15.09 22.44 14.78 22.18 14.52C21.92 14.26 21.62 14.06 21.29 13.93C20.98 13.8 20.64 13.73 20.29 13.73H20.23C19.65 13.73 19.19 13.26 19.18 12.68C19.18 12.1 19.65 11.63 20.23 11.63H20.29ZM23.67 12.33C23.54 12.46 23.41 12.57 23.27 12.69C23.41 12.8 23.54 12.92 23.67 13.05C23.8 13.18 23.91 13.31 24.03 13.45C24.14 13.31 24.26 13.18 24.39 13.05C24.52 12.92 24.65 12.81 24.79 12.69C24.65 12.58 24.52 12.46 24.39 12.33C24.26 12.2 24.15 12.07 24.03 11.93C23.92 12.07 23.8 12.2 23.67 12.33ZM80.2 32.3C80.55 32.3 80.89 32.23 81.2 32.1C81.52 31.97 81.83 31.77 82.09 31.51C82.35 31.25 82.55 30.95 82.68 30.62C82.81 30.31 82.88 29.97 82.88 29.62V29.56C82.88 28.98 83.35 28.52 83.93 28.51C84.51 28.51 84.98 28.98 84.98 29.56V29.62C84.98 29.97 85.05 30.31 85.18 30.62C85.31 30.94 85.51 31.25 85.77 31.51C86.03 31.77 86.33 31.97 86.66 32.1C86.97 32.23 87.32 32.3 87.66 32.3H87.72C88.3 32.3 88.76 32.77 88.77 33.35C88.77 33.93 88.3 34.4 87.72 34.4H87.66C87.31 34.4 86.97 34.47 86.66 34.6C86.34 34.73 86.03 34.93 85.77 35.19C85.51 35.45 85.31 35.75 85.18 36.08C85.05 36.4 84.98 36.74 84.98 37.08V37.14C84.98 37.72 84.51 38.18 83.93 38.19C83.35 38.19 82.88 37.72 82.88 37.14V37.08C82.88 36.73 82.81 36.39 82.68 36.08C82.55 35.76 82.35 35.45 82.09 35.19C81.83 34.93 81.53 34.73 81.2 34.6C80.89 34.47 80.55 34.4 80.2 34.4H80.14C79.56 34.4 79.1 33.93 79.09 33.35C79.09 32.77 79.56 32.3 80.14 32.3H80.2ZM83.58 32.99C83.45 33.12 83.32 33.23 83.18 33.35C83.32 33.46 83.45 33.58 83.58 33.71C83.71 33.84 83.82 33.97 83.94 34.11C84.05 33.97 84.17 33.84 84.3 33.71C84.43 33.58 84.56 33.46 84.7 33.35C84.56 33.24 84.43 33.12 84.3 32.99C84.17 32.86 84.06 32.73 83.94 32.59C83.83 32.73 83.71 32.86 83.58 32.99ZM46.47 63.6C46.82 63.6 47.16 63.53 47.47 63.4C47.79 63.27 48.1 63.07 48.36 62.81C48.62 62.55 48.82 62.25 48.95 61.92C49.08 61.61 49.15 61.26 49.15 60.92V60.86C49.15 60.28 49.62 59.82 50.2 59.81C50.78 59.81 51.25 60.28 51.25 60.86V60.92C51.25 61.27 51.32 61.61 51.45 61.92C51.58 62.24 51.78 62.55 52.04 62.81C52.3 63.07 52.6 63.27 52.93 63.4C53.24 63.53 53.58 63.6 53.93 63.6H53.99C54.57 63.6 55.03 64.07 55.04 64.65C55.04 65.23 54.57 65.7 53.99 65.7H53.93C53.58 65.7 53.24 65.77 52.93 65.9C52.61 66.03 52.3 66.23 52.04 66.49C51.78 66.75 51.58 67.05 51.45 67.38C51.32 67.69 51.25 68.03 51.25 68.38V68.44C51.25 69.02 50.78 69.48 50.2 69.49C49.62 69.49 49.15 69.02 49.15 68.44V68.38C49.15 68.03 49.08 67.69 48.95 67.38C48.82 67.06 48.62 66.75 48.36 66.49C48.1 66.23 47.8 66.03 47.47 65.9C47.15 65.77 46.81 65.7 46.47 65.7H46.41C45.83 65.7 45.37 65.23 45.36 64.65C45.36 64.07 45.83 63.6 46.41 63.6H46.47ZM49.85 64.3C49.72 64.43 49.59 64.54 49.45 64.66C49.59 64.77 49.72 64.89 49.85 65.02C49.98 65.15 50.09 65.28 50.21 65.42C50.32 65.28 50.44 65.15 50.57 65.02C50.7 64.89 50.83 64.78 50.97 64.66C50.83 64.55 50.7 64.43 50.57 64.3C50.44 64.17 50.33 64.04 50.21 63.9C50.1 64.04 49.98 64.17 49.85 64.3ZM9.08004 64.8C9.43004 64.8 9.77004 64.73 10.08 64.6C10.4 64.47 10.71 64.27 10.97 64.01C11.23 63.75 11.43 63.45 11.56 63.12C11.69 62.81 11.76 62.47 11.76 62.12V62.06C11.76 61.48 12.23 61.02 12.81 61.01C13.39 61.01 13.86 61.48 13.86 62.06V62.12C13.86 62.47 13.93 62.81 14.06 63.12C14.19 63.44 14.39 63.75 14.65 64.01C14.91 64.27 15.21 64.47 15.54 64.6C15.85 64.73 16.19 64.8 16.54 64.8H16.6C17.18 64.8 17.64 65.27 17.65 65.85C17.65 66.43 17.18 66.9 16.6 66.9H16.54C16.19 66.9 15.85 66.97 15.54 67.1C15.22 67.23 14.91 67.43 14.65 67.69C14.39 67.95 14.19 68.25 14.06 68.58C13.93 68.89 13.86 69.23 13.86 69.58V69.64C13.86 70.22 13.39 70.68 12.81 70.69C12.23 70.69 11.76 70.22 11.76 69.64V69.58C11.76 69.23 11.69 68.89 11.56 68.58C11.43 68.26 11.23 67.95 10.97 67.69C10.71 67.43 10.41 67.23 10.08 67.1C9.77004 66.97 9.43004 66.9 9.08004 66.9H9.02004C8.44004 66.9 7.98004 66.43 7.97004 65.85C7.97004 65.27 8.44004 64.8 9.02004 64.8H9.08004ZM12.46 65.5C12.33 65.63 12.2 65.74 12.06 65.86C12.2 65.97 12.33 66.09 12.46 66.22C12.59 66.35 12.7 66.48 12.82 66.62C12.93 66.48 13.05 66.35 13.18 66.22C13.31 66.09 13.44 65.98 13.58 65.86C13.44 65.75 13.31 65.63 13.18 65.5C13.05 65.37 12.94 65.24 12.82 65.1C12.71 65.24 12.59 65.37 12.46 65.5ZM53.3 7C53.59 6.5 54.23 6.32 54.73 6.61C55.23 6.9 55.41 7.54 55.12 8.04L52.25 13.01C51.96 13.51 51.32 13.69 50.82 13.4C50.32 13.11 50.14 12.47 50.43 11.97L53.3 7ZM35.88 8.05C35.59 7.55 35.76 6.91 36.27 6.62C36.77 6.33 37.41 6.5 37.7 7.01L40.57 11.98C40.86 12.48 40.69 13.12 40.18 13.41C39.68 13.7 39.04 13.53 38.75 13.02L35.88 8.05ZM44.45 5.19C44.45 4.61 44.92 4.14 45.5 4.14C46.08 4.14 46.55 4.61 46.55 5.19V10.93C46.55 11.51 46.08 11.98 45.5 11.98C44.92 11.98 44.45 11.51 44.45 10.93V5.19ZM50.57 40.69C52.78 40.39 54.99 40.02 57 39.41C59.47 38.66 61.65 37.55 63.19 35.8C68.53 29.75 69.81 29.41 73.05 29.19L77.21 44.72C78.08 47.98 77.55 51.3 75.99 54.03C75.98 54.05 75.97 54.06 75.96 54.08C74.38 56.82 71.76 58.96 68.48 59.84C65.2 60.72 61.86 60.18 59.12 58.59C56.38 57.01 54.24 54.39 53.36 51.11L50.57 40.69ZM61.83 90.46C61.27 90.61 60.69 90.28 60.54 89.71C60.39 89.15 60.72 88.57 61.29 88.42L74.13 84.98L68 62.1C64.5 62.77 60.99 62.1 58.07 60.41C54.88 58.57 52.39 55.52 51.35 51.71C51.34 51.67 51.33 51.63 51.32 51.59L45.51 29.9L39.7 51.59C39.7 51.59 39.68 51.67 39.67 51.71C38.63 55.52 36.14 58.56 32.95 60.41C30.03 62.1 26.52 62.77 23.02 62.1L16.89 84.98L29.73 88.42C30.29 88.57 30.63 89.15 30.48 89.71C30.33 90.27 29.75 90.61 29.19 90.46L1.47004 83.03C0.910044 82.88 0.570044 82.3 0.720044 81.74C0.870044 81.18 1.45004 80.84 2.01004 80.99L14.85 84.43L20.98 61.55C17.61 60.38 14.91 58.04 13.23 55.12C13.22 55.1 13.21 55.08 13.2 55.06C11.37 51.86 10.75 47.98 11.77 44.16L18.61 18.62C18.76 18.06 19.34 17.72 19.9 17.87L45.52 24.73L71.14 17.87C71.7 17.72 72.28 18.05 72.43 18.62L79.27 44.16C80.29 47.97 79.67 51.86 77.84 55.06C77.83 55.08 77.82 55.1 77.81 55.12C76.12 58.04 73.43 60.38 70.06 61.55L76.19 84.43L89.03 80.99C89.59 80.84 90.17 81.17 90.32 81.74C90.47 82.3 90.14 82.88 89.57 83.03L61.85 90.46H61.83ZM18.5 27.12C22.09 27.39 23.66 27.94 29.38 34.41C30.63 35.82 32.48 36.75 34.61 37.39C36.57 37.98 38.77 38.34 40.98 38.63L44.21 26.58L20.36 20.19L18.5 27.11V27.12ZM40.43 40.69C38.22 40.39 36.01 40.02 34 39.41C31.53 38.66 29.35 37.55 27.81 35.8C22.47 29.75 21.19 29.41 17.95 29.19L13.79 44.72C12.92 47.98 13.45 51.3 15.01 54.03C15.02 54.05 15.03 54.06 15.04 54.08C16.62 56.82 19.24 58.96 22.52 59.84C25.8 60.72 29.14 60.18 31.88 58.59C34.62 57.01 36.76 54.39 37.64 51.11L40.43 40.69Z" fill="url(#paint0_linear_328_1421)"/>
<defs>
<linearGradient id="paint0_linear_328_1421" x1="45.5204" y1="0.5" x2="45.5204" y2="90.4961" gradientUnits="userSpaceOnUse">
<stop stop-color="#EC3939"/>
<stop offset="1" stop-color="#E0842E"/>
</linearGradient>
</defs>
</svg>
