<svg width="248" height="196" viewBox="0 0 248 196" fill="none" xmlns="http://www.w3.org/2000/svg">
<path d="M221.587 142.726C220.392 140.216 218.046 137.726 214.551 135.263C209.126 131.443 201.121 127.808 190.534 124.38L189.985 125.648C188.131 129.718 185.545 133.513 182.233 136.824C174.748 144.297 164.949 148.034 155.167 148.034C145.375 148.034 135.576 144.3 128.101 136.824C120.629 129.339 116.891 119.54 116.891 109.762C116.891 100.06 120.569 90.3409 128.011 82.7923C131.413 79.3807 135.214 76.7913 139.277 74.9407L140.709 74.325C133.876 67.5651 125.811 62.2598 117.034 58.6718C111.869 56.5617 106.443 55.0406 100.725 54.1386C95.4366 53.3066 90.0181 53.0536 84.5497 53.4264C71.2263 54.3217 58.6752 58.8249 48.0745 66.1373C37.4671 73.4463 28.7934 83.5744 23.2185 95.7029C19.95 102.819 17.8898 110.311 17.0211 117.88C16.1857 125.205 16.4653 132.597 17.8266 139.787C21.3113 142.453 23.964 145.258 25.7946 148.191C27.9613 144.719 31.2897 141.424 35.7829 138.319C39.6238 135.66 44.3634 133.107 49.9849 130.674C51.5093 130.018 53.28 130.72 53.9357 132.241C54.0555 132.521 54.1287 132.804 54.1653 133.09C54.8676 139.171 55.0307 144.553 54.6512 149.209C54.0788 156.239 52.2548 161.75 49.2061 165.728C48.384 166.796 47.4887 167.751 46.5035 168.587L153.979 168.583C155.237 163.994 157.84 160.01 161.298 157.051C165.402 153.546 170.717 151.449 176.442 151.449C182.166 151.449 187.475 153.546 191.579 157.051C192.654 157.973 193.649 158.991 194.548 160.099C194.824 159.281 195.14 158.472 195.496 157.683C197.487 153.276 200.735 149.419 204.972 146.683C209.206 143.95 214.048 142.582 218.878 142.582C219.783 142.582 220.685 142.632 221.587 142.726ZM160.293 168.583H192.584C191.539 165.851 189.828 163.468 187.665 161.621C184.639 159.034 180.705 157.487 176.442 157.487C172.178 157.487 168.241 159.034 165.212 161.621C163.048 163.468 161.338 165.851 160.293 168.583ZM199.251 168.583L238.505 168.58C238.555 165.641 237.949 162.765 236.768 160.159C235.247 156.784 232.77 153.842 229.532 151.752C226.297 149.665 222.589 148.62 218.878 148.62C215.163 148.62 211.456 149.668 208.221 151.752C204.985 153.842 202.509 156.784 200.985 160.159C199.807 162.765 199.201 165.644 199.251 168.583ZM48.6436 148.737C48.9032 145.528 48.8799 141.92 48.577 137.919C44.9691 139.657 41.8372 141.441 39.1978 143.265C34.3617 146.606 31.2131 150.058 29.752 153.589C28.384 156.894 28.5105 160.416 30.1181 164.13C30.5375 165.105 31.0733 166.107 31.709 167.129C32.9172 167.169 34.0588 167.129 35.1306 167.006C39.1479 166.546 42.2499 164.896 44.4233 162.073C46.7564 159.038 48.1643 154.591 48.6436 148.737ZM3.00549 137.919C2.23664 148.048 3.25511 155.553 6.07088 160.439C8.76683 165.095 13.3732 167.332 19.8801 167.129C20.5125 166.11 21.0417 165.102 21.501 164.047C22.3531 162.043 22.7725 160.149 22.7791 158.216C22.7591 156.595 22.4463 155.07 21.8405 153.593C20.4892 150.321 17.6901 147.122 13.2368 143.861L12.4014 143.275C9.75867 141.444 6.62006 139.66 3.00549 137.919ZM152.424 31.1099C150.89 29.8485 149.286 29.4091 147.745 29.5456C146.18 29.6787 144.659 30.4109 143.591 31.6857L141.514 34.1586C137.976 38.3723 133.975 41.7472 129.472 44.2934C124.992 46.8396 120.03 48.5237 114.578 49.3891C113.34 49.5855 112.098 49.8651 110.867 50.2145C113.732 51.0233 116.545 51.9885 119.294 53.1135C129.805 57.4071 139.354 63.9439 147.179 72.3346C148.936 71.9619 150.717 71.7122 152.538 71.5824C153.177 68.3107 154.152 65.1554 155.5 62.1233C157.161 58.4022 159.394 54.8642 162.2 51.5226L164.263 49.0529C165.348 47.7516 165.798 46.1373 165.661 44.5763C165.531 43.0386 164.829 41.5575 163.355 40.2795L152.424 31.1099ZM164.996 33.7992L173.652 23.4913C174.844 22.3297 176.758 22.3464 177.919 23.5379C179.171 24.8193 180.788 25.5616 182.453 25.7346C184.13 25.9044 185.867 25.5116 187.349 24.5231C188.833 23.5279 189.868 22.0735 190.341 20.4659C190.82 18.8516 190.757 17.061 190.055 15.4201C189.356 13.7793 188.114 12.4945 186.62 11.7323C185.149 10.9768 183.418 10.7105 181.707 11.0633C181.427 11.1332 181.135 11.1665 180.832 11.1565C179.174 11.0866 177.889 9.67875 177.956 8.02124C178.029 6.24724 177.46 4.54979 176.442 3.20182C175.43 1.86715 173.952 0.865323 172.221 0.459267C170.487 0.0565384 168.72 0.302838 167.209 1.05504C165.708 1.79393 164.456 3.06202 163.734 4.70289C163.018 6.33378 162.929 8.11776 163.388 9.73201C163.847 11.3496 164.862 12.8174 166.45 13.9124C167.841 15.064 168.011 16.9678 166.946 18.2426L158.475 28.3307L164.996 33.7992ZM192.258 62.7257C190.707 61.2613 189.192 60.7121 187.685 60.7121C186.117 60.7121 184.546 61.3045 183.365 62.4861L181.068 64.7627C177.191 68.6568 172.904 71.669 168.197 73.8191C164.32 75.5831 160.173 76.748 155.363 77.3604C154.548 77.4603 153.732 77.5401 152.897 77.5967C150.953 77.7332 149.013 78.0427 146.7 78.6385C145.016 79.0912 143.375 79.6869 141.78 80.4092C138.395 81.9502 135.19 84.1436 132.285 87.0425C126.021 93.3797 122.929 101.571 122.929 109.762C122.929 118.016 126.071 126.274 132.365 132.554C138.665 138.851 146.916 141.997 155.167 141.997C163.425 141.997 171.682 138.855 177.963 132.571C180.782 129.735 182.975 126.537 184.52 123.145C185.009 122.067 185.441 120.962 185.881 119.607C186.67 117.134 187.152 114.588 187.335 112.028C187.718 106.503 188.969 101.414 191.16 96.6148C193.346 91.8986 196.332 87.6982 200.156 83.864L202.436 81.5874C203.621 80.4025 204.217 78.8216 204.217 77.2473C204.217 75.673 203.621 74.102 202.24 72.7174C199.101 69.3291 195.526 65.9076 192.258 62.7257ZM204.46 66.4768L214.025 56.9478C215.303 55.8927 217.2 56.0791 218.255 57.3571C219.384 58.7317 220.935 59.6171 222.589 59.9333C224.24 60.2528 226.011 60.0098 227.571 59.1544C229.132 58.2957 230.287 56.9278 230.906 55.3635C231.522 53.8025 231.609 52.0185 231.056 50.321C230.5 48.6302 229.372 47.2457 227.954 46.3537C226.536 45.4617 224.802 45.049 223.042 45.2686C222.785 45.3052 222.519 45.3086 222.246 45.2753C220.602 45.0589 219.437 43.5479 219.653 41.9004C219.883 40.133 219.47 38.3989 218.575 36.9744C217.686 35.5565 216.298 34.4282 214.604 33.8724C212.904 33.3199 211.123 33.4064 209.559 34.0255C207.998 34.6413 206.633 35.7929 205.778 37.3538C204.916 38.9215 204.676 40.6888 204.992 42.3364C205.295 43.9173 206.11 45.4018 207.378 46.5134L207.795 46.8596C208.969 48.0378 208.969 49.9549 207.795 51.1298L198.538 60.3859C200.525 62.3729 202.473 64.4831 204.46 66.4768ZM247.981 174.618H0L14.415 195.26H233.566L247.981 174.618Z" fill="url(#paint0_linear_332_1437)"/>
<defs>
<linearGradient id="paint0_linear_332_1437" x1="123.99" y1="0.267334" x2="123.99" y2="195.26" gradientUnits="userSpaceOnUse">
<stop stop-color="#FF1A0C"/>
<stop offset="1" stop-color="#DA8521"/>
</linearGradient>
</defs>
</svg>
